<svg xmlns="http://www.w3.org/2000/svg" xmlns:xlink="http://www.w3.org/1999/xlink" width="500" zoomAndPan="magnify" viewBox="0 0 375 374.999991" height="500" preserveAspectRatio="xMidYMid meet" version="1.0"><defs><filter x="0%" y="0%" width="100%" height="100%" id="37605d5c30"><feColorMatrix values="0 0 0 0 1 0 0 0 0 1 0 0 0 0 1 0 0 0 1 0" color-interpolation-filters="sRGB"/></filter><g/><clipPath id="3303eb382c"><path d="M 11 9 L 370.441406 9 L 370.441406 369 L 11 369 Z M 11 9 " clip-rule="nonzero"/></clipPath><mask id="2751bffa77"><g filter="url(#37605d5c30)"><rect x="-37.5" width="450" fill="#000000" y="-37.499999" height="449.999989" fill-opacity="0.88"/></g></mask><clipPath id="0ed6778bb9"><rect x="0" width="146" y="0" height="60"/></clipPath></defs><g clip-path="url(#3303eb382c)"><path fill="#c9e265" d="M 317.113281 320.054688 C 275.375 339.675781 213.539062 386.761719 153.25 361.078125 C 92.964844 335.394531 22.210938 246.683594 13.410156 199.832031 C 4.609375 152.980469 31.605469 47.980469 138.863281 18.253906 C 246.121094 -11.476562 336.140625 35.613281 370.386719 213.984375 C 370.386719 213.984375 358.851562 300.433594 317.113281 320.054688 Z M 213.300781 43.582031 C 184.050781 36.328125 145.402344 49.882812 103.664062 82.226562 C 61.925781 114.574219 61.925781 138.59375 51.460938 169.984375 C 41 201.378906 58.714844 233.722656 83.808594 268.089844 C 108.898438 302.453125 141.480469 320.765625 172.515625 325.523438 C 213.183594 331.824219 264.433594 319.222656 292.617188 308.875 C 320.800781 298.53125 337.445312 254.53125 339.585938 225.28125 C 341.726562 196.027344 330.195312 169.984375 311.40625 125.035156 C 292.617188 80.085938 242.554688 50.835938 213.300781 43.582031 Z M 213.300781 43.582031 " fill-opacity="1" fill-rule="nonzero"/></g><g fill="#000000" fill-opacity="1"><g transform="translate(124.815552, 109.039409)"><g><path d="M 12.835938 -2.792969 C 13.621094 -2.792969 14.355469 -2.988281 15.140625 -3.378906 C 15.925781 -3.773438 16.609375 -4.261719 17.199219 -4.851562 C 17.785156 -5.4375 18.226562 -6.171875 18.570312 -6.957031 C 18.914062 -7.742188 19.058594 -8.527344 19.011719 -9.308594 C 18.914062 -10.535156 18.570312 -11.808594 18.03125 -13.132812 C 17.492188 -14.40625 16.855469 -15.726562 16.121094 -17.050781 C 15.335938 -18.375 14.550781 -19.695312 13.71875 -20.972656 C 12.835938 -22.246094 12.054688 -23.519531 11.320312 -24.695312 C 10.582031 -25.871094 9.996094 -26.996094 9.503906 -28.074219 C 9.015625 -29.152344 8.820312 -30.085938 8.820312 -30.964844 C 8.820312 -31.554688 8.964844 -32.09375 9.261719 -32.582031 C 9.554688 -33.074219 10.042969 -33.464844 10.78125 -33.855469 C 11.023438 -33.957031 11.269531 -34.054688 11.515625 -34.054688 C 11.757812 -34.054688 11.957031 -33.957031 12.152344 -33.808594 C 12.347656 -33.613281 12.542969 -33.417969 12.738281 -33.21875 C 12.933594 -33.023438 13.179688 -32.828125 13.472656 -32.632812 C 13.769531 -32.4375 14.160156 -32.339844 14.75 -32.339844 C 14.992188 -32.289062 15.238281 -32.339844 15.433594 -32.535156 C 15.628906 -32.679688 15.777344 -32.925781 15.777344 -33.21875 C 15.777344 -33.660156 15.433594 -34.25 14.75 -34.933594 C 14.0625 -35.621094 12.789062 -36.40625 10.925781 -37.285156 C 10.289062 -37.53125 9.652344 -37.679688 9.066406 -37.679688 C 8.132812 -37.679688 7.25 -37.433594 6.417969 -36.945312 C 5.585938 -36.453125 4.949219 -35.769531 4.558594 -34.933594 C 4.261719 -34.347656 4.066406 -33.808594 3.96875 -33.316406 C 3.871094 -32.828125 3.820312 -32.289062 3.820312 -31.800781 C 3.820312 -30.722656 4.019531 -29.59375 4.457031 -28.46875 C 4.898438 -27.292969 5.488281 -26.117188 6.222656 -24.839844 C 6.910156 -23.566406 7.742188 -22.246094 8.625 -20.824219 C 9.503906 -19.355469 10.4375 -17.785156 11.367188 -16.121094 C 11.710938 -15.433594 12.003906 -14.796875 12.199219 -14.109375 C 12.394531 -13.425781 12.640625 -12.789062 12.886719 -12.101562 C 12.984375 -11.808594 13.035156 -11.515625 13.035156 -11.21875 C 13.035156 -10.828125 12.933594 -10.4375 12.738281 -10.140625 C 12.199219 -9.261719 11.5625 -8.625 10.78125 -8.183594 C 9.996094 -7.691406 9.261719 -7.496094 8.574219 -7.496094 C 7.988281 -7.496094 7.496094 -7.644531 7.054688 -7.988281 C 6.613281 -8.28125 6.320312 -8.820312 6.222656 -9.554688 C 6.125 -9.847656 6.027344 -10.09375 5.929688 -10.289062 C 5.832031 -10.484375 5.632812 -10.632812 5.390625 -10.828125 C 5.144531 -10.976562 4.800781 -11.171875 4.359375 -11.417969 C 3.917969 -11.613281 3.332031 -11.90625 2.644531 -12.296875 C 2.449219 -12.101562 2.304688 -11.957031 2.105469 -11.855469 C 1.910156 -11.710938 1.8125 -11.5625 1.765625 -11.417969 C 1.566406 -10.925781 1.46875 -10.484375 1.46875 -10.09375 C 1.46875 -9.503906 1.566406 -8.964844 1.863281 -8.476562 C 2.15625 -7.988281 2.5 -7.496094 2.988281 -7.054688 C 3.480469 -6.566406 4.019531 -6.125 4.605469 -5.734375 C 5.195312 -5.292969 5.78125 -4.898438 6.371094 -4.558594 C 7.351562 -3.871094 8.378906 -3.429688 9.457031 -3.183594 C 10.535156 -2.890625 11.660156 -2.792969 12.835938 -2.792969 Z M 12.835938 -2.792969 "/></g></g></g><g fill="#000000" fill-opacity="1"><g transform="translate(145.29592, 109.039409)"><g><path d="M 9.601562 -2.203125 C 9.800781 -2.203125 9.945312 -2.304688 10.140625 -2.449219 C 10.289062 -2.597656 10.4375 -2.695312 10.582031 -2.792969 C 10.484375 -3.183594 10.386719 -3.480469 10.339844 -3.773438 C 10.242188 -4.066406 10.191406 -4.410156 10.140625 -4.800781 C 10.042969 -5.195312 9.996094 -5.78125 9.898438 -6.515625 C 9.800781 -7.203125 9.75 -8.230469 9.703125 -9.503906 C 9.601562 -10.78125 9.554688 -12.445312 9.457031 -14.503906 C 9.359375 -16.511719 9.261719 -19.058594 9.164062 -22.097656 C 9.066406 -23.371094 9.066406 -24.597656 9.066406 -25.675781 L 9.066406 -30.867188 C 9.066406 -32.242188 9.015625 -33.367188 8.964844 -34.152344 C 8.867188 -34.933594 8.671875 -35.523438 8.378906 -36.011719 C 8.085938 -36.503906 7.59375 -36.894531 7.007812 -37.1875 C 6.417969 -37.484375 5.585938 -37.824219 4.507812 -38.21875 C 3.917969 -37.925781 3.480469 -37.089844 3.28125 -35.671875 C 3.039062 -34.199219 2.941406 -32.4375 2.941406 -30.378906 C 2.941406 -28.859375 2.988281 -27.242188 3.085938 -25.578125 C 3.183594 -23.910156 3.28125 -22.195312 3.429688 -20.480469 C 3.578125 -18.765625 3.773438 -17.101562 3.96875 -15.484375 C 4.164062 -13.816406 4.3125 -12.347656 4.507812 -10.976562 C 4.703125 -9.601562 4.851562 -8.425781 5.046875 -7.449219 C 5.195312 -6.417969 5.339844 -5.683594 5.488281 -5.292969 C 6.027344 -3.136719 7.398438 -2.105469 9.601562 -2.203125 Z M 9.601562 -2.203125 "/></g></g></g><g fill="#000000" fill-opacity="1"><g transform="translate(158.818841, 109.039409)"><g><path d="M 29.789062 -2.792969 C 30.183594 -2.792969 30.476562 -2.84375 30.769531 -2.988281 C 31.015625 -3.136719 31.164062 -3.378906 31.164062 -3.722656 C 31.164062 -3.871094 31.113281 -4.066406 31.015625 -4.261719 C 30.722656 -4.800781 30.574219 -5.535156 30.527344 -6.515625 C 30.425781 -7.449219 30.425781 -8.328125 30.425781 -9.210938 C 30.425781 -9.703125 30.425781 -10.191406 30.425781 -10.582031 C 30.425781 -10.976562 30.476562 -11.269531 30.476562 -11.464844 C 30.671875 -13.914062 30.820312 -16.070312 31.015625 -18.03125 C 31.164062 -19.992188 31.308594 -21.707031 31.457031 -23.226562 C 31.554688 -24.742188 31.652344 -26.066406 31.75 -27.195312 C 31.847656 -28.320312 31.898438 -29.300781 31.898438 -30.183594 C 31.898438 -31.308594 31.800781 -32.191406 31.652344 -32.878906 C 31.457031 -33.5625 31.164062 -34.101562 30.769531 -34.542969 C 30.378906 -34.984375 29.839844 -35.375 29.203125 -35.671875 C 28.515625 -35.964844 27.734375 -36.355469 26.753906 -36.796875 C 26.507812 -36.894531 26.3125 -36.894531 26.117188 -36.796875 C 25.917969 -36.699219 25.722656 -36.601562 25.578125 -36.40625 C 25.429688 -36.210938 25.28125 -36.011719 25.183594 -35.816406 C 25.039062 -35.621094 24.941406 -35.425781 24.839844 -35.277344 C 24.597656 -34.886719 24.253906 -34.347656 23.8125 -33.710938 C 23.324219 -33.023438 22.832031 -32.339844 22.292969 -31.601562 C 21.753906 -30.820312 21.167969 -30.085938 20.578125 -29.300781 C 19.941406 -28.515625 19.355469 -27.78125 18.816406 -27.144531 C 18.226562 -26.457031 17.738281 -25.917969 17.246094 -25.480469 C 16.757812 -24.988281 16.414062 -24.742188 16.167969 -24.695312 C 14.894531 -26.457031 13.816406 -27.929688 12.933594 -29.203125 C 12.054688 -30.476562 11.269531 -31.503906 10.582031 -32.339844 C 9.898438 -33.171875 9.359375 -33.855469 8.867188 -34.394531 C 8.378906 -34.886719 7.886719 -35.328125 7.496094 -35.671875 C 7.054688 -36.011719 6.613281 -36.308594 6.222656 -36.503906 C 5.78125 -36.699219 5.339844 -36.945312 4.851562 -37.1875 C 4.164062 -37.484375 3.625 -37.679688 3.183594 -37.679688 C 2.5 -37.679688 2.058594 -37.386719 1.8125 -36.847656 C 1.566406 -36.257812 1.46875 -35.472656 1.46875 -34.445312 C 1.46875 -33.074219 1.617188 -31.359375 2.007812 -29.300781 C 2.351562 -27.242188 2.742188 -25.039062 3.234375 -22.585938 C 3.675781 -20.136719 4.117188 -17.542969 4.605469 -14.847656 C 5.046875 -12.101562 5.390625 -9.40625 5.585938 -6.761719 C 5.632812 -5.734375 5.878906 -4.996094 6.320312 -4.558594 C 6.710938 -4.117188 7.449219 -3.820312 8.527344 -3.722656 C 9.066406 -3.625 9.457031 -3.917969 9.652344 -4.558594 C 9.847656 -5.144531 9.996094 -6.027344 9.996094 -7.152344 C 9.996094 -8.230469 9.898438 -9.457031 9.75 -10.925781 C 9.554688 -12.347656 9.359375 -13.816406 9.113281 -15.386719 C 8.820312 -16.902344 8.574219 -18.472656 8.28125 -20.039062 C 7.988281 -21.609375 7.742188 -23.027344 7.496094 -24.402344 C 7.25 -25.722656 7.054688 -26.898438 6.957031 -27.929688 C 6.8125 -28.957031 6.761719 -29.742188 6.8125 -30.230469 C 7.25 -29.691406 7.644531 -29.203125 7.988281 -28.761719 C 8.328125 -28.273438 8.671875 -27.832031 9.066406 -27.339844 C 9.40625 -26.851562 9.800781 -26.3125 10.242188 -25.722656 C 10.632812 -25.136719 11.171875 -24.449219 11.757812 -23.664062 C 12.886719 -22.195312 13.914062 -21.167969 14.847656 -20.578125 C 15.777344 -19.992188 16.660156 -19.746094 17.492188 -19.746094 C 18.375 -19.746094 19.207031 -19.992188 19.941406 -20.578125 C 20.675781 -21.167969 21.3125 -21.753906 21.902344 -22.441406 C 22.488281 -23.125 22.980469 -23.714844 23.421875 -24.253906 C 23.863281 -24.792969 24.253906 -25.039062 24.597656 -24.941406 C 24.597656 -24.546875 24.597656 -23.910156 24.597656 -23.027344 C 24.597656 -22.148438 24.644531 -21.167969 24.644531 -20.089844 C 24.644531 -18.960938 24.644531 -17.738281 24.644531 -16.464844 C 24.644531 -15.1875 24.695312 -13.914062 24.792969 -12.691406 C 24.839844 -11.417969 24.941406 -10.242188 25.039062 -9.113281 C 25.136719 -7.988281 25.332031 -7.054688 25.527344 -6.273438 C 25.625 -5.683594 25.871094 -5.144531 26.214844 -4.703125 C 26.507812 -4.261719 26.898438 -3.917969 27.292969 -3.625 C 27.683594 -3.332031 28.074219 -3.085938 28.515625 -2.988281 C 28.957031 -2.84375 29.398438 -2.792969 29.789062 -2.792969 Z M 29.789062 -2.792969 "/></g></g></g><g fill="#000000" fill-opacity="1"><g transform="translate(192.185176, 109.039409)"><g><path d="M 13.71875 -0.636719 C 13.867188 -0.636719 14.011719 -0.636719 14.210938 -0.636719 C 14.40625 -0.636719 14.601562 -0.6875 14.796875 -0.734375 C 15.089844 -1.078125 15.238281 -1.46875 15.238281 -1.863281 C 15.238281 -2.253906 15.289062 -2.597656 15.289062 -2.988281 C 15.1875 -5.878906 15.140625 -8.132812 15.089844 -9.75 C 14.992188 -11.320312 14.992188 -12.542969 14.992188 -13.425781 C 14.992188 -14.257812 15.042969 -14.847656 15.1875 -15.238281 C 15.289062 -15.582031 15.53125 -16.023438 15.925781 -16.511719 C 17.394531 -18.519531 18.617188 -20.1875 19.550781 -21.511719 C 20.480469 -22.832031 21.214844 -23.960938 21.753906 -24.839844 C 22.292969 -25.722656 22.6875 -26.410156 22.980469 -26.996094 C 23.226562 -27.585938 23.421875 -28.125 23.617188 -28.710938 C 23.765625 -29.203125 23.863281 -29.644531 23.960938 -30.132812 C 24.007812 -30.574219 24.058594 -31.015625 24.058594 -31.40625 C 24.058594 -32.632812 23.765625 -33.660156 23.175781 -34.542969 C 22.585938 -35.425781 21.949219 -36.109375 21.214844 -36.699219 C 20.480469 -37.285156 19.746094 -37.726562 19.058594 -38.070312 C 18.324219 -38.363281 17.785156 -38.660156 17.492188 -38.855469 C 16.265625 -39.492188 14.945312 -39.835938 13.472656 -39.835938 C 11.855469 -39.835938 10.191406 -39.394531 8.425781 -38.5625 C 6.664062 -37.679688 4.898438 -36.257812 3.183594 -34.25 C 2.988281 -34.003906 2.941406 -33.757812 2.941406 -33.5625 C 2.941406 -32.976562 3.183594 -32.582031 3.675781 -32.339844 C 4.117188 -32.09375 4.558594 -31.996094 4.949219 -31.996094 C 5.195312 -31.996094 5.4375 -32.042969 5.632812 -32.140625 C 5.832031 -32.242188 5.976562 -32.339844 6.171875 -32.4375 C 6.371094 -32.535156 6.566406 -32.632812 6.761719 -32.730469 C 6.957031 -32.828125 7.203125 -32.878906 7.496094 -32.878906 C 7.691406 -32.878906 7.839844 -32.828125 7.9375 -32.828125 C 7.9375 -28.027344 8.035156 -23.714844 8.230469 -19.992188 C 8.425781 -16.265625 8.625 -13.082031 8.867188 -10.535156 C 9.113281 -7.9375 9.359375 -5.929688 9.652344 -4.558594 C 9.898438 -3.136719 10.09375 -2.351562 10.191406 -2.253906 C 10.679688 -1.664062 11.21875 -1.226562 11.808594 -0.980469 C 12.394531 -0.734375 13.035156 -0.636719 13.71875 -0.636719 Z M 14.894531 -27.78125 C 14.796875 -28.171875 14.75 -28.566406 14.75 -28.957031 C 14.75 -29.347656 14.75 -29.789062 14.75 -30.183594 C 14.699219 -30.527344 14.699219 -30.820312 14.699219 -31.015625 L 14.699219 -31.945312 C 14.699219 -32.042969 14.648438 -32.242188 14.648438 -32.4375 C 14.601562 -32.632812 14.550781 -32.925781 14.453125 -33.316406 C 14.355469 -33.710938 14.257812 -34.25 14.160156 -35.035156 C 14.503906 -35.082031 14.847656 -35.132812 15.140625 -35.179688 C 15.433594 -35.230469 15.679688 -35.277344 15.972656 -35.277344 C 16.414062 -35.277344 16.757812 -35.132812 17.003906 -34.886719 C 17.246094 -34.59375 17.394531 -34.054688 17.394531 -33.269531 C 17.394531 -33.074219 17.34375 -32.828125 17.296875 -32.632812 C 17.246094 -32.386719 17.148438 -32.09375 17.003906 -31.703125 C 16.855469 -31.308594 16.660156 -30.820312 16.414062 -30.230469 C 16.121094 -29.644531 15.828125 -28.859375 15.433594 -27.929688 C 15.386719 -27.878906 15.335938 -27.878906 15.238281 -27.878906 C 15.140625 -27.878906 15.042969 -27.832031 14.894531 -27.78125 Z M 14.894531 -27.78125 "/></g></g></g><g fill="#000000" fill-opacity="1"><g transform="translate(217.712137, 109.039409)"><g><path d="M 14.699219 -3.527344 C 15.484375 -3.527344 16.21875 -3.578125 16.902344 -3.722656 C 17.589844 -3.820312 18.226562 -4.066406 18.765625 -4.410156 C 19.058594 -4.605469 19.257812 -4.851562 19.257812 -5.144531 C 19.257812 -5.4375 19.109375 -5.734375 18.816406 -6.027344 C 18.519531 -6.320312 18.128906 -6.613281 17.738281 -6.859375 C 17.296875 -7.105469 16.804688 -7.300781 16.316406 -7.449219 C 15.777344 -7.546875 15.289062 -7.59375 14.894531 -7.59375 C 14.699219 -7.546875 14.550781 -7.546875 14.453125 -7.546875 L 14.011719 -7.546875 C 12.738281 -7.546875 11.5625 -7.789062 10.484375 -8.28125 C 10.242188 -8.722656 10.140625 -9.164062 10.140625 -9.601562 L 10.140625 -14.503906 C 10.140625 -18.816406 10.191406 -22.246094 10.339844 -24.839844 C 10.4375 -27.4375 10.535156 -29.449219 10.535156 -30.917969 C 10.535156 -31.996094 10.4375 -32.828125 10.339844 -33.417969 C 10.191406 -34.003906 9.945312 -34.542969 9.601562 -34.933594 C 9.210938 -35.328125 8.722656 -35.621094 8.132812 -35.914062 C 7.496094 -36.210938 6.664062 -36.550781 5.683594 -36.945312 C 5.339844 -36.75 5.097656 -36.503906 4.949219 -36.308594 C 4.753906 -36.109375 4.65625 -35.816406 4.605469 -35.472656 C 4.410156 -34.296875 4.214844 -33.171875 4.019531 -32.191406 C 3.820312 -31.210938 3.625 -30.132812 3.480469 -29.007812 C 3.28125 -27.832031 3.183594 -26.558594 3.085938 -25.136719 C 2.988281 -23.664062 2.941406 -21.949219 2.941406 -19.941406 L 2.941406 -17.882812 C 2.941406 -17.199219 2.941406 -16.464844 2.988281 -15.679688 C 2.988281 -14.160156 3.085938 -12.835938 3.183594 -11.660156 C 3.28125 -10.484375 3.480469 -9.457031 3.773438 -8.574219 C 4.066406 -7.691406 4.507812 -6.910156 5.097656 -6.320312 C 5.683594 -5.683594 6.46875 -5.195312 7.546875 -4.800781 C 8.425781 -4.457031 9.503906 -4.164062 10.828125 -3.917969 C 12.101562 -3.625 13.425781 -3.527344 14.699219 -3.527344 Z M 14.699219 -3.527344 "/></g></g></g><g fill="#000000" fill-opacity="1"><g transform="translate(239.907368, 109.039409)"><g><path d="M 15.53125 -2.84375 C 16.023438 -2.84375 16.5625 -2.890625 17.148438 -3.039062 C 17.738281 -3.183594 18.421875 -3.429688 19.257812 -3.820312 C 20.433594 -4.3125 21.3125 -5.242188 21.804688 -6.566406 C 22 -6.957031 22.097656 -7.351562 22.097656 -7.644531 C 22.097656 -8.132812 21.804688 -8.476562 21.3125 -8.769531 C 20.773438 -9.066406 19.992188 -9.40625 18.960938 -9.898438 C 18.570312 -9.457031 18.179688 -9.066406 17.882812 -8.671875 C 17.542969 -8.28125 17.199219 -7.988281 16.804688 -7.691406 C 16.414062 -7.398438 15.972656 -7.203125 15.484375 -7.054688 C 14.992188 -6.859375 14.453125 -6.8125 13.769531 -6.8125 C 12.789062 -6.8125 12.003906 -6.859375 11.464844 -7.054688 C 10.925781 -7.203125 10.582031 -7.496094 10.386719 -7.988281 C 9.996094 -8.722656 9.703125 -9.601562 9.40625 -10.632812 C 9.113281 -11.660156 8.964844 -12.933594 8.964844 -14.40625 C 8.964844 -15.1875 9.015625 -16.023438 9.113281 -16.953125 C 9.210938 -17.882812 9.457031 -18.914062 9.75 -20.089844 C 10.976562 -20.234375 12.003906 -20.382812 12.789062 -20.480469 C 13.574219 -20.578125 14.210938 -20.675781 14.75 -20.773438 C 15.238281 -20.871094 15.679688 -20.972656 16.023438 -21.117188 C 16.363281 -21.265625 16.707031 -21.460938 17.050781 -21.753906 C 17.34375 -21.949219 17.492188 -22.195312 17.492188 -22.488281 C 17.492188 -22.882812 17.148438 -23.226562 16.5625 -23.519531 C 15.925781 -23.8125 15.289062 -24.105469 14.648438 -24.5 C 14.0625 -24.253906 13.472656 -24.058594 12.886719 -23.910156 C 12.296875 -23.714844 11.710938 -23.664062 11.023438 -23.664062 C 10.878906 -23.664062 10.730469 -23.664062 10.632812 -23.664062 C 10.535156 -23.664062 10.386719 -23.714844 10.289062 -23.714844 C 10.632812 -25.332031 11.023438 -26.898438 11.417969 -28.417969 C 11.808594 -29.886719 12.25 -31.40625 12.738281 -32.976562 C 13.035156 -32.976562 13.375 -33.023438 13.671875 -33.074219 C 13.964844 -33.121094 14.257812 -33.171875 14.550781 -33.171875 C 15.484375 -33.21875 16.363281 -33.21875 17.246094 -33.21875 C 18.128906 -33.171875 19.257812 -33.269531 20.628906 -33.515625 C 20.972656 -33.5625 21.167969 -33.808594 21.167969 -34.25 C 21.167969 -34.445312 21.070312 -34.59375 20.921875 -34.789062 C 20.136719 -35.472656 19.453125 -35.867188 18.765625 -36.011719 C 18.078125 -36.160156 17.34375 -36.257812 16.464844 -36.308594 C 15.582031 -36.308594 14.503906 -36.40625 13.328125 -36.550781 C 12.101562 -36.648438 10.582031 -37.042969 8.769531 -37.628906 C 8.085938 -37.140625 7.449219 -36.699219 6.859375 -36.308594 C 6.222656 -35.914062 5.929688 -35.523438 5.929688 -35.132812 C 5.929688 -34.933594 5.976562 -34.789062 6.125 -34.691406 C 6.371094 -34.347656 6.515625 -34.054688 6.515625 -33.757812 C 6.515625 -33.464844 6.417969 -33.171875 6.320312 -32.78125 C 6.222656 -32.386719 6.027344 -31.847656 5.832031 -31.261719 C 5.632812 -30.625 5.390625 -29.839844 5.097656 -28.957031 C 4.800781 -28.027344 4.507812 -26.898438 4.214844 -25.625 C 3.820312 -24.058594 3.527344 -22.441406 3.28125 -20.871094 C 3.039062 -19.257812 2.941406 -17.6875 2.941406 -16.121094 C 2.941406 -14.648438 3.039062 -13.230469 3.332031 -11.90625 C 3.578125 -10.582031 4.019531 -9.40625 4.65625 -8.328125 C 5.242188 -7.25 6.074219 -6.320312 7.105469 -5.535156 C 8.085938 -4.753906 9.359375 -4.164062 10.925781 -3.820312 C 11.90625 -3.527344 12.789062 -3.332031 13.472656 -3.136719 C 14.160156 -2.941406 14.847656 -2.84375 15.53125 -2.84375 Z M 15.53125 -2.84375 "/></g></g></g><g fill="#000000" fill-opacity="1"><g transform="translate(264.948356, 109.039409)"><g/></g></g><g fill="#000000" fill-opacity="1"><g transform="translate(122.999146, 163.789405)"><g><path d="M 12.835938 -2.792969 C 13.621094 -2.792969 14.355469 -2.988281 15.140625 -3.378906 C 15.925781 -3.773438 16.609375 -4.261719 17.199219 -4.851562 C 17.785156 -5.4375 18.226562 -6.171875 18.570312 -6.957031 C 18.914062 -7.742188 19.058594 -8.527344 19.011719 -9.308594 C 18.914062 -10.535156 18.570312 -11.808594 18.03125 -13.132812 C 17.492188 -14.40625 16.855469 -15.726562 16.121094 -17.050781 C 15.335938 -18.375 14.550781 -19.695312 13.71875 -20.972656 C 12.835938 -22.246094 12.054688 -23.519531 11.320312 -24.695312 C 10.582031 -25.871094 9.996094 -26.996094 9.503906 -28.074219 C 9.015625 -29.152344 8.820312 -30.085938 8.820312 -30.964844 C 8.820312 -31.554688 8.964844 -32.09375 9.261719 -32.582031 C 9.554688 -33.074219 10.042969 -33.464844 10.78125 -33.855469 C 11.023438 -33.957031 11.269531 -34.054688 11.515625 -34.054688 C 11.757812 -34.054688 11.957031 -33.957031 12.152344 -33.808594 C 12.347656 -33.613281 12.542969 -33.417969 12.738281 -33.21875 C 12.933594 -33.023438 13.179688 -32.828125 13.472656 -32.632812 C 13.769531 -32.4375 14.160156 -32.339844 14.75 -32.339844 C 14.992188 -32.289062 15.238281 -32.339844 15.433594 -32.535156 C 15.628906 -32.679688 15.777344 -32.925781 15.777344 -33.21875 C 15.777344 -33.660156 15.433594 -34.25 14.75 -34.933594 C 14.0625 -35.621094 12.789062 -36.40625 10.925781 -37.285156 C 10.289062 -37.53125 9.652344 -37.679688 9.066406 -37.679688 C 8.132812 -37.679688 7.25 -37.433594 6.417969 -36.945312 C 5.585938 -36.453125 4.949219 -35.769531 4.558594 -34.933594 C 4.261719 -34.347656 4.066406 -33.808594 3.96875 -33.316406 C 3.871094 -32.828125 3.820312 -32.289062 3.820312 -31.800781 C 3.820312 -30.722656 4.019531 -29.59375 4.457031 -28.46875 C 4.898438 -27.292969 5.488281 -26.117188 6.222656 -24.839844 C 6.910156 -23.566406 7.742188 -22.246094 8.625 -20.824219 C 9.503906 -19.355469 10.4375 -17.785156 11.367188 -16.121094 C 11.710938 -15.433594 12.003906 -14.796875 12.199219 -14.109375 C 12.394531 -13.425781 12.640625 -12.789062 12.886719 -12.101562 C 12.984375 -11.808594 13.035156 -11.515625 13.035156 -11.21875 C 13.035156 -10.828125 12.933594 -10.4375 12.738281 -10.140625 C 12.199219 -9.261719 11.5625 -8.625 10.78125 -8.183594 C 9.996094 -7.691406 9.261719 -7.496094 8.574219 -7.496094 C 7.988281 -7.496094 7.496094 -7.644531 7.054688 -7.988281 C 6.613281 -8.28125 6.320312 -8.820312 6.222656 -9.554688 C 6.125 -9.847656 6.027344 -10.09375 5.929688 -10.289062 C 5.832031 -10.484375 5.632812 -10.632812 5.390625 -10.828125 C 5.144531 -10.976562 4.800781 -11.171875 4.359375 -11.417969 C 3.917969 -11.613281 3.332031 -11.90625 2.644531 -12.296875 C 2.449219 -12.101562 2.304688 -11.957031 2.105469 -11.855469 C 1.910156 -11.710938 1.8125 -11.5625 1.765625 -11.417969 C 1.566406 -10.925781 1.46875 -10.484375 1.46875 -10.09375 C 1.46875 -9.503906 1.566406 -8.964844 1.863281 -8.476562 C 2.15625 -7.988281 2.5 -7.496094 2.988281 -7.054688 C 3.480469 -6.566406 4.019531 -6.125 4.605469 -5.734375 C 5.195312 -5.292969 5.78125 -4.898438 6.371094 -4.558594 C 7.351562 -3.871094 8.378906 -3.429688 9.457031 -3.183594 C 10.535156 -2.890625 11.660156 -2.792969 12.835938 -2.792969 Z M 12.835938 -2.792969 "/></g></g></g><g fill="#000000" fill-opacity="1"><g transform="translate(143.479514, 163.789405)"><g><path d="M 15.53125 -2.84375 C 16.023438 -2.84375 16.5625 -2.890625 17.148438 -3.039062 C 17.738281 -3.183594 18.421875 -3.429688 19.257812 -3.820312 C 20.433594 -4.3125 21.3125 -5.242188 21.804688 -6.566406 C 22 -6.957031 22.097656 -7.351562 22.097656 -7.644531 C 22.097656 -8.132812 21.804688 -8.476562 21.3125 -8.769531 C 20.773438 -9.066406 19.992188 -9.40625 18.960938 -9.898438 C 18.570312 -9.457031 18.179688 -9.066406 17.882812 -8.671875 C 17.542969 -8.28125 17.199219 -7.988281 16.804688 -7.691406 C 16.414062 -7.398438 15.972656 -7.203125 15.484375 -7.054688 C 14.992188 -6.859375 14.453125 -6.8125 13.769531 -6.8125 C 12.789062 -6.8125 12.003906 -6.859375 11.464844 -7.054688 C 10.925781 -7.203125 10.582031 -7.496094 10.386719 -7.988281 C 9.996094 -8.722656 9.703125 -9.601562 9.40625 -10.632812 C 9.113281 -11.660156 8.964844 -12.933594 8.964844 -14.40625 C 8.964844 -15.1875 9.015625 -16.023438 9.113281 -16.953125 C 9.210938 -17.882812 9.457031 -18.914062 9.75 -20.089844 C 10.976562 -20.234375 12.003906 -20.382812 12.789062 -20.480469 C 13.574219 -20.578125 14.210938 -20.675781 14.75 -20.773438 C 15.238281 -20.871094 15.679688 -20.972656 16.023438 -21.117188 C 16.363281 -21.265625 16.707031 -21.460938 17.050781 -21.753906 C 17.34375 -21.949219 17.492188 -22.195312 17.492188 -22.488281 C 17.492188 -22.882812 17.148438 -23.226562 16.5625 -23.519531 C 15.925781 -23.8125 15.289062 -24.105469 14.648438 -24.5 C 14.0625 -24.253906 13.472656 -24.058594 12.886719 -23.910156 C 12.296875 -23.714844 11.710938 -23.664062 11.023438 -23.664062 C 10.878906 -23.664062 10.730469 -23.664062 10.632812 -23.664062 C 10.535156 -23.664062 10.386719 -23.714844 10.289062 -23.714844 C 10.632812 -25.332031 11.023438 -26.898438 11.417969 -28.417969 C 11.808594 -29.886719 12.25 -31.40625 12.738281 -32.976562 C 13.035156 -32.976562 13.375 -33.023438 13.671875 -33.074219 C 13.964844 -33.121094 14.257812 -33.171875 14.550781 -33.171875 C 15.484375 -33.21875 16.363281 -33.21875 17.246094 -33.21875 C 18.128906 -33.171875 19.257812 -33.269531 20.628906 -33.515625 C 20.972656 -33.5625 21.167969 -33.808594 21.167969 -34.25 C 21.167969 -34.445312 21.070312 -34.59375 20.921875 -34.789062 C 20.136719 -35.472656 19.453125 -35.867188 18.765625 -36.011719 C 18.078125 -36.160156 17.34375 -36.257812 16.464844 -36.308594 C 15.582031 -36.308594 14.503906 -36.40625 13.328125 -36.550781 C 12.101562 -36.648438 10.582031 -37.042969 8.769531 -37.628906 C 8.085938 -37.140625 7.449219 -36.699219 6.859375 -36.308594 C 6.222656 -35.914062 5.929688 -35.523438 5.929688 -35.132812 C 5.929688 -34.933594 5.976562 -34.789062 6.125 -34.691406 C 6.371094 -34.347656 6.515625 -34.054688 6.515625 -33.757812 C 6.515625 -33.464844 6.417969 -33.171875 6.320312 -32.78125 C 6.222656 -32.386719 6.027344 -31.847656 5.832031 -31.261719 C 5.632812 -30.625 5.390625 -29.839844 5.097656 -28.957031 C 4.800781 -28.027344 4.507812 -26.898438 4.214844 -25.625 C 3.820312 -24.058594 3.527344 -22.441406 3.28125 -20.871094 C 3.039062 -19.257812 2.941406 -17.6875 2.941406 -16.121094 C 2.941406 -14.648438 3.039062 -13.230469 3.332031 -11.90625 C 3.578125 -10.582031 4.019531 -9.40625 4.65625 -8.328125 C 5.242188 -7.25 6.074219 -6.320312 7.105469 -5.535156 C 8.085938 -4.753906 9.359375 -4.164062 10.925781 -3.820312 C 11.90625 -3.527344 12.789062 -3.332031 13.472656 -3.136719 C 14.160156 -2.941406 14.847656 -2.84375 15.53125 -2.84375 Z M 15.53125 -2.84375 "/></g></g></g><g fill="#000000" fill-opacity="1"><g transform="translate(168.516519, 163.789405)"><g><path d="M 9.601562 -2.203125 C 9.800781 -2.203125 9.945312 -2.304688 10.140625 -2.449219 C 10.289062 -2.597656 10.4375 -2.695312 10.582031 -2.792969 C 10.484375 -3.183594 10.386719 -3.480469 10.339844 -3.773438 C 10.242188 -4.066406 10.191406 -4.410156 10.140625 -4.800781 C 10.042969 -5.195312 9.996094 -5.78125 9.898438 -6.515625 C 9.800781 -7.203125 9.75 -8.230469 9.703125 -9.503906 C 9.601562 -10.78125 9.554688 -12.445312 9.457031 -14.503906 C 9.359375 -16.511719 9.261719 -19.058594 9.164062 -22.097656 C 9.066406 -23.371094 9.066406 -24.597656 9.066406 -25.675781 L 9.066406 -30.867188 C 9.066406 -32.242188 9.015625 -33.367188 8.964844 -34.152344 C 8.867188 -34.933594 8.671875 -35.523438 8.378906 -36.011719 C 8.085938 -36.503906 7.59375 -36.894531 7.007812 -37.1875 C 6.417969 -37.484375 5.585938 -37.824219 4.507812 -38.21875 C 3.917969 -37.925781 3.480469 -37.089844 3.28125 -35.671875 C 3.039062 -34.199219 2.941406 -32.4375 2.941406 -30.378906 C 2.941406 -28.859375 2.988281 -27.242188 3.085938 -25.578125 C 3.183594 -23.910156 3.28125 -22.195312 3.429688 -20.480469 C 3.578125 -18.765625 3.773438 -17.101562 3.96875 -15.484375 C 4.164062 -13.816406 4.3125 -12.347656 4.507812 -10.976562 C 4.703125 -9.601562 4.851562 -8.425781 5.046875 -7.449219 C 5.195312 -6.417969 5.339844 -5.683594 5.488281 -5.292969 C 6.027344 -3.136719 7.398438 -2.105469 9.601562 -2.203125 Z M 9.601562 -2.203125 "/></g></g></g><g fill="#000000" fill-opacity="1"><g transform="translate(182.03944, 163.789405)"><g><path d="M 14.699219 -2.007812 C 15.089844 -2.007812 15.433594 -2.058594 15.828125 -2.203125 C 15.828125 -2.597656 15.875 -3.234375 15.925781 -4.164062 C 15.972656 -5.097656 16.023438 -6.222656 16.070312 -7.546875 C 16.121094 -8.867188 16.167969 -10.339844 16.21875 -11.957031 C 16.21875 -13.523438 16.265625 -15.1875 16.265625 -16.953125 C 16.265625 -18.324219 16.21875 -19.746094 16.21875 -21.167969 C 16.167969 -22.585938 16.121094 -24.007812 16.070312 -25.378906 C 15.972656 -26.753906 15.925781 -28.027344 15.828125 -29.300781 C 15.726562 -30.574219 15.582031 -31.75 15.433594 -32.828125 C 15.925781 -32.925781 16.5625 -33.023438 17.394531 -33.121094 C 18.179688 -33.21875 19.058594 -33.367188 19.992188 -33.464844 C 20.921875 -33.5625 21.851562 -33.660156 22.785156 -33.808594 C 23.714844 -33.957031 24.546875 -34.101562 25.332031 -34.296875 C 26.117188 -34.496094 26.703125 -34.691406 27.195312 -34.933594 C 27.683594 -35.179688 27.929688 -35.472656 27.929688 -35.867188 C 27.929688 -36.160156 27.632812 -36.550781 27.144531 -36.992188 C 26.605469 -37.386719 25.722656 -37.875 24.546875 -38.464844 C 23.863281 -38.070312 23.175781 -37.824219 22.488281 -37.726562 C 21.804688 -37.628906 21.117188 -37.582031 20.480469 -37.53125 C 17.738281 -37.335938 15.484375 -37.1875 13.621094 -37.089844 C 11.757812 -36.992188 10.191406 -36.894531 8.964844 -36.796875 C 7.742188 -36.699219 6.761719 -36.648438 6.074219 -36.601562 C 5.339844 -36.550781 4.753906 -36.503906 4.359375 -36.453125 C 3.917969 -36.40625 3.578125 -36.355469 3.332031 -36.308594 C 3.039062 -36.257812 2.742188 -36.210938 2.449219 -36.109375 C 2.105469 -36.011719 1.863281 -35.816406 1.714844 -35.570312 C 1.519531 -35.328125 1.46875 -35.082031 1.46875 -34.789062 C 1.46875 -34.394531 1.566406 -34.003906 1.863281 -33.710938 C 2.351562 -33.121094 2.988281 -32.730469 3.675781 -32.535156 C 4.359375 -32.339844 5.097656 -32.289062 5.878906 -32.289062 C 6.371094 -32.289062 6.910156 -32.289062 7.398438 -32.339844 C 7.886719 -32.339844 8.328125 -32.386719 8.722656 -32.386719 C 8.964844 -32.386719 9.210938 -32.339844 9.457031 -32.339844 C 9.652344 -32.289062 9.847656 -32.242188 9.996094 -32.140625 C 9.996094 -31.945312 9.996094 -31.800781 9.996094 -31.601562 C 9.996094 -31.40625 10.042969 -31.261719 10.042969 -31.113281 C 10.042969 -30.527344 9.996094 -29.9375 9.996094 -29.347656 C 9.945312 -28.761719 9.945312 -27.878906 9.945312 -26.753906 C 9.945312 -25.480469 9.945312 -23.8125 10.042969 -21.65625 C 10.140625 -19.5 10.339844 -16.660156 10.632812 -13.132812 C 10.828125 -10.828125 10.976562 -9.015625 11.074219 -7.742188 C 11.171875 -6.46875 11.269531 -5.4375 11.417969 -4.753906 C 11.515625 -4.066406 11.710938 -3.578125 11.90625 -3.332031 C 12.101562 -3.039062 12.347656 -2.792969 12.738281 -2.597656 C 13.035156 -2.402344 13.375 -2.253906 13.671875 -2.15625 C 13.964844 -2.058594 14.308594 -2.007812 14.699219 -2.007812 Z M 14.699219 -2.007812 "/></g></g></g><g fill="#000000" fill-opacity="1"><g transform="translate(211.43709, 163.789405)"><g><path d="M 3.378906 0 C 3.675781 0 3.96875 -0.148438 4.164062 -0.441406 C 4.359375 -0.734375 4.605469 -1.273438 4.851562 -2.105469 C 5.097656 -2.941406 5.390625 -4.066406 5.78125 -5.535156 C 6.171875 -7.007812 6.664062 -8.917969 7.351562 -11.269531 L 17.589844 -16.609375 L 18.667969 -14.550781 C 19.453125 -12.933594 20.136719 -11.613281 20.628906 -10.535156 C 21.117188 -9.457031 21.609375 -8.625 22.050781 -7.988281 C 22.488281 -7.300781 22.980469 -6.8125 23.46875 -6.515625 C 23.960938 -6.171875 24.644531 -5.976562 25.480469 -5.878906 L 25.917969 -5.878906 C 26.558594 -5.878906 26.898438 -6.171875 26.898438 -6.761719 C 26.898438 -7.546875 26.457031 -8.917969 25.578125 -10.878906 C 24.695312 -12.835938 23.519531 -15.628906 22.148438 -19.257812 C 22.488281 -19.597656 22.832031 -19.941406 23.175781 -20.332031 C 23.519531 -20.675781 23.714844 -21.019531 23.714844 -21.363281 C 23.714844 -21.558594 23.566406 -21.804688 23.324219 -22 C 22.636719 -22.488281 22.148438 -22.785156 21.804688 -22.929688 C 21.410156 -23.078125 21.117188 -23.226562 20.921875 -23.324219 C 20.726562 -23.421875 20.53125 -23.566406 20.382812 -23.765625 C 20.1875 -23.960938 19.992188 -24.351562 19.695312 -24.988281 C 19.402344 -25.625 19.011719 -26.558594 18.519531 -27.78125 C 18.03125 -29.007812 17.34375 -30.671875 16.464844 -32.78125 C 16.070312 -33.660156 15.726562 -34.347656 15.433594 -34.835938 C 15.140625 -35.328125 14.894531 -35.71875 14.699219 -36.0625 C 14.503906 -36.40625 14.308594 -36.75 14.160156 -37.089844 C 13.964844 -37.433594 13.816406 -37.925781 13.71875 -38.609375 L 10.042969 -40.472656 C 9.652344 -40.226562 9.308594 -39.933594 9.015625 -39.640625 C 8.722656 -39.296875 8.378906 -38.757812 8.085938 -37.972656 C 7.789062 -37.1875 7.449219 -36.109375 7.054688 -34.738281 C 6.664062 -33.367188 6.222656 -31.503906 5.683594 -29.25 C 5.097656 -26.949219 4.457031 -24.105469 3.722656 -20.726562 C 2.941406 -17.34375 2.058594 -13.277344 0.980469 -8.527344 C 0.6875 -7.203125 0.488281 -6.074219 0.292969 -5.195312 C 0.0976562 -4.261719 0 -3.480469 0 -2.84375 C 0 -2.105469 0.0976562 -1.566406 0.390625 -1.175781 C 0.6875 -0.785156 1.175781 -0.488281 1.863281 -0.34375 C 2.203125 -0.246094 2.5 -0.148438 2.742188 -0.0976562 C 2.941406 0 3.183594 0 3.378906 0 Z M 9.457031 -18.03125 C 9.40625 -18.277344 9.503906 -18.863281 9.703125 -19.746094 C 9.898438 -20.628906 10.140625 -21.558594 10.4375 -22.539062 C 10.679688 -23.519531 10.925781 -24.402344 11.21875 -25.28125 C 11.464844 -26.117188 11.613281 -26.605469 11.710938 -26.800781 C 11.90625 -26.800781 12.003906 -26.851562 12.101562 -26.851562 C 12.152344 -26.851562 12.296875 -26.65625 12.496094 -26.359375 C 12.691406 -26.019531 12.984375 -25.480469 13.375 -24.695312 C 13.769531 -23.910156 14.355469 -22.734375 15.238281 -21.167969 C 14.257812 -20.480469 13.328125 -19.941406 12.394531 -19.453125 C 11.464844 -18.960938 10.484375 -18.472656 9.457031 -18.03125 Z M 9.457031 -18.03125 "/></g></g></g><g fill="#000000" fill-opacity="1"><g transform="translate(240.83474, 163.789405)"><g><path d="M 21.265625 -4.457031 C 21.558594 -4.753906 21.851562 -5.097656 22.148438 -5.390625 C 22.441406 -5.683594 22.6875 -5.976562 22.980469 -6.320312 C 22.882812 -6.515625 22.785156 -6.761719 22.6875 -6.957031 C 22.585938 -7.152344 22.539062 -7.496094 22.441406 -7.988281 C 22.34375 -8.476562 22.292969 -9.210938 22.246094 -10.191406 C 22.195312 -11.171875 22.148438 -12.496094 22.097656 -14.257812 C 22 -15.972656 21.949219 -18.179688 21.902344 -20.824219 C 21.851562 -23.46875 21.804688 -26.753906 21.753906 -30.671875 C 21.707031 -31.800781 21.460938 -32.78125 21.019531 -33.660156 C 20.578125 -34.542969 19.796875 -35.179688 18.617188 -35.621094 C 18.421875 -35.671875 18.277344 -35.71875 18.226562 -35.769531 C 18.179688 -35.816406 18.128906 -35.867188 18.078125 -35.914062 C 17.980469 -35.914062 17.882812 -35.964844 17.738281 -35.964844 C 17.589844 -35.964844 17.34375 -36.011719 16.953125 -36.011719 C 16.804688 -35.816406 16.707031 -35.621094 16.609375 -35.425781 C 16.511719 -35.230469 16.464844 -35.035156 16.414062 -34.738281 C 16.363281 -34.445312 16.316406 -34.101562 16.316406 -33.710938 C 16.265625 -33.316406 16.265625 -32.78125 16.265625 -32.140625 C 16.265625 -31.164062 16.265625 -29.9375 16.316406 -28.371094 C 16.363281 -26.800781 16.464844 -24.792969 16.5625 -22.292969 C 16.609375 -20.773438 16.660156 -19.648438 16.757812 -18.863281 C 16.804688 -18.078125 16.855469 -17.492188 16.855469 -17.148438 C 16.855469 -16.855469 16.804688 -16.707031 16.757812 -16.609375 C 16.660156 -16.511719 16.511719 -16.511719 16.316406 -16.511719 C 14.648438 -19.84375 13.375 -22.539062 12.394531 -24.644531 C 11.417969 -26.753906 10.679688 -28.417969 10.140625 -29.691406 C 9.554688 -30.964844 9.113281 -31.898438 8.820312 -32.484375 C 8.527344 -33.074219 8.183594 -33.515625 7.886719 -33.808594 C 7.59375 -34.101562 7.203125 -34.347656 6.761719 -34.542969 C 6.273438 -34.738281 5.632812 -35.132812 4.753906 -35.621094 C 4.703125 -35.621094 4.65625 -35.621094 4.605469 -35.621094 C 4.507812 -35.621094 4.410156 -35.621094 4.261719 -35.671875 C 4.117188 -35.472656 3.96875 -35.277344 3.871094 -35.082031 C 3.773438 -34.886719 3.675781 -34.691406 3.625 -34.496094 C 3.332031 -33.21875 3.183594 -31.945312 3.085938 -30.671875 C 2.988281 -29.347656 2.941406 -28.027344 2.941406 -26.703125 C 2.941406 -24.644531 2.988281 -22.585938 3.183594 -20.53125 C 3.378906 -18.472656 3.578125 -16.414062 3.820312 -14.453125 C 4.019531 -12.496094 4.261719 -10.925781 4.457031 -9.75 C 4.65625 -8.574219 4.898438 -7.644531 5.242188 -6.957031 C 5.535156 -6.273438 5.976562 -5.832031 6.515625 -5.535156 C 7.007812 -5.242188 7.742188 -5.046875 8.625 -4.949219 C 9.164062 -4.851562 9.554688 -4.996094 9.75 -5.292969 C 9.945312 -5.585938 10.09375 -5.929688 10.09375 -6.320312 C 10.09375 -6.613281 10.042969 -6.910156 9.945312 -7.105469 C 9.75 -7.398438 9.652344 -7.742188 9.554688 -8.132812 C 9.457031 -8.476562 9.359375 -9.066406 9.308594 -9.898438 C 9.210938 -10.679688 9.164062 -11.855469 9.164062 -13.328125 C 9.113281 -14.796875 9.066406 -16.855469 9.015625 -19.453125 L 9.015625 -19.5 C 9.015625 -19.597656 9.066406 -19.796875 9.261719 -20.136719 C 10.535156 -18.277344 11.613281 -16.363281 12.496094 -14.503906 C 13.375 -12.640625 14.257812 -10.925781 15.140625 -9.40625 C 15.972656 -7.886719 16.855469 -6.664062 17.835938 -5.734375 C 18.765625 -4.800781 19.894531 -4.359375 21.265625 -4.457031 Z M 21.265625 -4.457031 "/></g></g></g><g fill="#000000" fill-opacity="1"><g transform="translate(149.530394, 218.539402)"><g><path d="M 23.863281 -1.617188 C 24.253906 -1.617188 24.644531 -1.664062 25.039062 -1.765625 C 25.527344 -1.910156 25.820312 -2.304688 25.820312 -2.941406 C 25.820312 -3.429688 25.578125 -3.820312 25.136719 -4.117188 C 24.449219 -4.457031 23.863281 -4.949219 23.273438 -5.535156 C 22.6875 -6.125 22 -7.007812 21.167969 -8.085938 C 20.285156 -9.164062 19.207031 -10.582031 17.835938 -12.296875 C 16.464844 -13.964844 14.601562 -16.121094 12.347656 -18.71875 C 14.109375 -21.070312 15.582031 -23.078125 16.855469 -24.742188 C 18.078125 -26.410156 19.109375 -27.78125 19.894531 -28.957031 C 20.675781 -30.085938 21.214844 -31.015625 21.609375 -31.75 C 22 -32.484375 22.195312 -33.121094 22.195312 -33.613281 C 22.195312 -34.296875 21.804688 -34.886719 21.019531 -35.277344 C 20.234375 -35.671875 19.15625 -36.210938 17.835938 -36.894531 C 17.542969 -36.75 17.246094 -36.601562 17.050781 -36.453125 C 16.855469 -36.257812 16.5625 -35.914062 16.167969 -35.375 C 15.777344 -34.835938 15.1875 -34.054688 14.503906 -32.976562 C 13.769531 -31.898438 12.738281 -30.425781 11.417969 -28.566406 C 11.320312 -28.371094 11.171875 -28.222656 11.074219 -28.074219 C 10.976562 -27.929688 10.78125 -27.878906 10.484375 -27.929688 C 10.242188 -30.085938 10.09375 -31.75 10.042969 -32.976562 C 9.945312 -34.152344 9.75 -35.132812 9.457031 -35.816406 C 9.164062 -36.503906 8.625 -37.042969 7.9375 -37.433594 C 7.203125 -37.824219 6.074219 -38.265625 4.605469 -38.855469 C 3.96875 -38.660156 3.527344 -37.777344 3.28125 -36.210938 C 3.039062 -34.640625 2.941406 -32.730469 2.941406 -30.378906 C 2.941406 -28.371094 2.988281 -26.214844 3.136719 -23.863281 C 3.28125 -21.511719 3.480469 -19.207031 3.675781 -16.953125 C 3.871094 -14.699219 4.117188 -12.59375 4.359375 -10.632812 C 4.558594 -8.671875 4.800781 -7.054688 4.996094 -5.78125 C 5.097656 -5.195312 5.242188 -4.753906 5.4375 -4.410156 C 5.632812 -4.019531 5.878906 -3.722656 6.222656 -3.527344 C 6.515625 -3.28125 6.910156 -3.085938 7.398438 -2.988281 C 7.839844 -2.84375 8.378906 -2.742188 9.066406 -2.644531 C 9.164062 -2.597656 9.359375 -2.597656 9.554688 -2.597656 C 10.042969 -2.597656 10.339844 -2.742188 10.535156 -3.085938 C 10.679688 -3.429688 10.78125 -3.917969 10.78125 -4.507812 C 10.78125 -5.097656 10.730469 -5.832031 10.632812 -6.613281 C 10.535156 -7.398438 10.484375 -8.230469 10.484375 -9.113281 C 10.484375 -9.503906 10.484375 -9.898438 10.535156 -10.289062 C 10.535156 -10.679688 10.632812 -11.023438 10.730469 -11.417969 C 11.320312 -10.828125 11.855469 -10.339844 12.347656 -9.847656 C 12.835938 -9.359375 13.328125 -8.820312 13.867188 -8.328125 C 14.355469 -7.789062 14.945312 -7.203125 15.582031 -6.566406 C 16.167969 -5.878906 16.953125 -5.097656 17.835938 -4.214844 C 18.667969 -3.332031 19.648438 -2.695312 20.773438 -2.253906 C 21.902344 -1.8125 22.929688 -1.617188 23.863281 -1.617188 Z M 23.863281 -1.617188 "/></g></g></g><g fill="#000000" fill-opacity="1"><g transform="translate(176.82121, 218.539402)"><g><path d="M 9.601562 -2.203125 C 9.800781 -2.203125 9.945312 -2.304688 10.140625 -2.449219 C 10.289062 -2.597656 10.4375 -2.695312 10.582031 -2.792969 C 10.484375 -3.183594 10.386719 -3.480469 10.339844 -3.773438 C 10.242188 -4.066406 10.191406 -4.410156 10.140625 -4.800781 C 10.042969 -5.195312 9.996094 -5.78125 9.898438 -6.515625 C 9.800781 -7.203125 9.75 -8.230469 9.703125 -9.503906 C 9.601562 -10.78125 9.554688 -12.445312 9.457031 -14.503906 C 9.359375 -16.511719 9.261719 -19.058594 9.164062 -22.097656 C 9.066406 -23.371094 9.066406 -24.597656 9.066406 -25.675781 L 9.066406 -30.867188 C 9.066406 -32.242188 9.015625 -33.367188 8.964844 -34.152344 C 8.867188 -34.933594 8.671875 -35.523438 8.378906 -36.011719 C 8.085938 -36.503906 7.59375 -36.894531 7.007812 -37.1875 C 6.417969 -37.484375 5.585938 -37.824219 4.507812 -38.21875 C 3.917969 -37.925781 3.480469 -37.089844 3.28125 -35.671875 C 3.039062 -34.199219 2.941406 -32.4375 2.941406 -30.378906 C 2.941406 -28.859375 2.988281 -27.242188 3.085938 -25.578125 C 3.183594 -23.910156 3.28125 -22.195312 3.429688 -20.480469 C 3.578125 -18.765625 3.773438 -17.101562 3.96875 -15.484375 C 4.164062 -13.816406 4.3125 -12.347656 4.507812 -10.976562 C 4.703125 -9.601562 4.851562 -8.425781 5.046875 -7.449219 C 5.195312 -6.417969 5.339844 -5.683594 5.488281 -5.292969 C 6.027344 -3.136719 7.398438 -2.105469 9.601562 -2.203125 Z M 9.601562 -2.203125 "/></g></g></g><g fill="#000000" fill-opacity="1"><g transform="translate(190.344131, 218.539402)"><g><path d="M 14.699219 -2.007812 C 15.089844 -2.007812 15.433594 -2.058594 15.828125 -2.203125 C 15.828125 -2.597656 15.875 -3.234375 15.925781 -4.164062 C 15.972656 -5.097656 16.023438 -6.222656 16.070312 -7.546875 C 16.121094 -8.867188 16.167969 -10.339844 16.21875 -11.957031 C 16.21875 -13.523438 16.265625 -15.1875 16.265625 -16.953125 C 16.265625 -18.324219 16.21875 -19.746094 16.21875 -21.167969 C 16.167969 -22.585938 16.121094 -24.007812 16.070312 -25.378906 C 15.972656 -26.753906 15.925781 -28.027344 15.828125 -29.300781 C 15.726562 -30.574219 15.582031 -31.75 15.433594 -32.828125 C 15.925781 -32.925781 16.5625 -33.023438 17.394531 -33.121094 C 18.179688 -33.21875 19.058594 -33.367188 19.992188 -33.464844 C 20.921875 -33.5625 21.851562 -33.660156 22.785156 -33.808594 C 23.714844 -33.957031 24.546875 -34.101562 25.332031 -34.296875 C 26.117188 -34.496094 26.703125 -34.691406 27.195312 -34.933594 C 27.683594 -35.179688 27.929688 -35.472656 27.929688 -35.867188 C 27.929688 -36.160156 27.632812 -36.550781 27.144531 -36.992188 C 26.605469 -37.386719 25.722656 -37.875 24.546875 -38.464844 C 23.863281 -38.070312 23.175781 -37.824219 22.488281 -37.726562 C 21.804688 -37.628906 21.117188 -37.582031 20.480469 -37.53125 C 17.738281 -37.335938 15.484375 -37.1875 13.621094 -37.089844 C 11.757812 -36.992188 10.191406 -36.894531 8.964844 -36.796875 C 7.742188 -36.699219 6.761719 -36.648438 6.074219 -36.601562 C 5.339844 -36.550781 4.753906 -36.503906 4.359375 -36.453125 C 3.917969 -36.40625 3.578125 -36.355469 3.332031 -36.308594 C 3.039062 -36.257812 2.742188 -36.210938 2.449219 -36.109375 C 2.105469 -36.011719 1.863281 -35.816406 1.714844 -35.570312 C 1.519531 -35.328125 1.46875 -35.082031 1.46875 -34.789062 C 1.46875 -34.394531 1.566406 -34.003906 1.863281 -33.710938 C 2.351562 -33.121094 2.988281 -32.730469 3.675781 -32.535156 C 4.359375 -32.339844 5.097656 -32.289062 5.878906 -32.289062 C 6.371094 -32.289062 6.910156 -32.289062 7.398438 -32.339844 C 7.886719 -32.339844 8.328125 -32.386719 8.722656 -32.386719 C 8.964844 -32.386719 9.210938 -32.339844 9.457031 -32.339844 C 9.652344 -32.289062 9.847656 -32.242188 9.996094 -32.140625 C 9.996094 -31.945312 9.996094 -31.800781 9.996094 -31.601562 C 9.996094 -31.40625 10.042969 -31.261719 10.042969 -31.113281 C 10.042969 -30.527344 9.996094 -29.9375 9.996094 -29.347656 C 9.945312 -28.761719 9.945312 -27.878906 9.945312 -26.753906 C 9.945312 -25.480469 9.945312 -23.8125 10.042969 -21.65625 C 10.140625 -19.5 10.339844 -16.660156 10.632812 -13.132812 C 10.828125 -10.828125 10.976562 -9.015625 11.074219 -7.742188 C 11.171875 -6.46875 11.269531 -5.4375 11.417969 -4.753906 C 11.515625 -4.066406 11.710938 -3.578125 11.90625 -3.332031 C 12.101562 -3.039062 12.347656 -2.792969 12.738281 -2.597656 C 13.035156 -2.402344 13.375 -2.253906 13.671875 -2.15625 C 13.964844 -2.058594 14.308594 -2.007812 14.699219 -2.007812 Z M 14.699219 -2.007812 "/></g></g></g><g fill="#000000" fill-opacity="1"><g transform="translate(219.741781, 218.539402)"><g><path d="M 12.835938 -2.792969 C 13.621094 -2.792969 14.355469 -2.988281 15.140625 -3.378906 C 15.925781 -3.773438 16.609375 -4.261719 17.199219 -4.851562 C 17.785156 -5.4375 18.226562 -6.171875 18.570312 -6.957031 C 18.914062 -7.742188 19.058594 -8.527344 19.011719 -9.308594 C 18.914062 -10.535156 18.570312 -11.808594 18.03125 -13.132812 C 17.492188 -14.40625 16.855469 -15.726562 16.121094 -17.050781 C 15.335938 -18.375 14.550781 -19.695312 13.71875 -20.972656 C 12.835938 -22.246094 12.054688 -23.519531 11.320312 -24.695312 C 10.582031 -25.871094 9.996094 -26.996094 9.503906 -28.074219 C 9.015625 -29.152344 8.820312 -30.085938 8.820312 -30.964844 C 8.820312 -31.554688 8.964844 -32.09375 9.261719 -32.582031 C 9.554688 -33.074219 10.042969 -33.464844 10.78125 -33.855469 C 11.023438 -33.957031 11.269531 -34.054688 11.515625 -34.054688 C 11.757812 -34.054688 11.957031 -33.957031 12.152344 -33.808594 C 12.347656 -33.613281 12.542969 -33.417969 12.738281 -33.21875 C 12.933594 -33.023438 13.179688 -32.828125 13.472656 -32.632812 C 13.769531 -32.4375 14.160156 -32.339844 14.75 -32.339844 C 14.992188 -32.289062 15.238281 -32.339844 15.433594 -32.535156 C 15.628906 -32.679688 15.777344 -32.925781 15.777344 -33.21875 C 15.777344 -33.660156 15.433594 -34.25 14.75 -34.933594 C 14.0625 -35.621094 12.789062 -36.40625 10.925781 -37.285156 C 10.289062 -37.53125 9.652344 -37.679688 9.066406 -37.679688 C 8.132812 -37.679688 7.25 -37.433594 6.417969 -36.945312 C 5.585938 -36.453125 4.949219 -35.769531 4.558594 -34.933594 C 4.261719 -34.347656 4.066406 -33.808594 3.96875 -33.316406 C 3.871094 -32.828125 3.820312 -32.289062 3.820312 -31.800781 C 3.820312 -30.722656 4.019531 -29.59375 4.457031 -28.46875 C 4.898438 -27.292969 5.488281 -26.117188 6.222656 -24.839844 C 6.910156 -23.566406 7.742188 -22.246094 8.625 -20.824219 C 9.503906 -19.355469 10.4375 -17.785156 11.367188 -16.121094 C 11.710938 -15.433594 12.003906 -14.796875 12.199219 -14.109375 C 12.394531 -13.425781 12.640625 -12.789062 12.886719 -12.101562 C 12.984375 -11.808594 13.035156 -11.515625 13.035156 -11.21875 C 13.035156 -10.828125 12.933594 -10.4375 12.738281 -10.140625 C 12.199219 -9.261719 11.5625 -8.625 10.78125 -8.183594 C 9.996094 -7.691406 9.261719 -7.496094 8.574219 -7.496094 C 7.988281 -7.496094 7.496094 -7.644531 7.054688 -7.988281 C 6.613281 -8.28125 6.320312 -8.820312 6.222656 -9.554688 C 6.125 -9.847656 6.027344 -10.09375 5.929688 -10.289062 C 5.832031 -10.484375 5.632812 -10.632812 5.390625 -10.828125 C 5.144531 -10.976562 4.800781 -11.171875 4.359375 -11.417969 C 3.917969 -11.613281 3.332031 -11.90625 2.644531 -12.296875 C 2.449219 -12.101562 2.304688 -11.957031 2.105469 -11.855469 C 1.910156 -11.710938 1.8125 -11.5625 1.765625 -11.417969 C 1.566406 -10.925781 1.46875 -10.484375 1.46875 -10.09375 C 1.46875 -9.503906 1.566406 -8.964844 1.863281 -8.476562 C 2.15625 -7.988281 2.5 -7.496094 2.988281 -7.054688 C 3.480469 -6.566406 4.019531 -6.125 4.605469 -5.734375 C 5.195312 -5.292969 5.78125 -4.898438 6.371094 -4.558594 C 7.351562 -3.871094 8.378906 -3.429688 9.457031 -3.183594 C 10.535156 -2.890625 11.660156 -2.792969 12.835938 -2.792969 Z M 12.835938 -2.792969 "/></g></g></g><g mask="url(#2751bffa77)"><g transform="matrix(1, 0, 0, 1, 120, 247)"><g clip-path="url(#0ed6778bb9)"><g fill="#000000" fill-opacity="1"><g transform="translate(1.671786, 24.942248)"><g><path d="M 9.273438 -11.703125 C 9.300781 -11.617188 9.328125 -11.507812 9.328125 -11.367188 C 9.328125 -10.917969 9.214844 -10.332031 9.046875 -9.605469 C 8.851562 -8.824219 8.65625 -8.292969 8.488281 -8.015625 C 8.183594 -7.511719 7.566406 -6.730469 6.617188 -5.726562 C 5.863281 -4.941406 5.363281 -4.441406 5.136719 -4.21875 C 5.082031 -4.609375 5.054688 -4.914062 5.027344 -5.136719 C 4.914062 -5.921875 4.859375 -6.617188 4.859375 -7.234375 C 4.832031 -7.820312 4.804688 -8.210938 4.804688 -8.40625 C 5.417969 -9.019531 5.863281 -9.496094 6.199219 -9.832031 C 7.484375 -11.171875 8.40625 -11.839844 8.964844 -11.839844 C 9.132812 -11.839844 9.214844 -11.785156 9.273438 -11.703125 Z M 7.148438 -13.90625 C 6.535156 -13.601562 5.894531 -13.238281 5.277344 -12.789062 C 4.804688 -12.425781 4.496094 -12.203125 4.355469 -12.09375 C 4.246094 -12.457031 4.160156 -12.707031 4.132812 -12.847656 C 4.050781 -13.210938 3.992188 -13.460938 3.964844 -13.574219 L 2.765625 -13.574219 C 2.207031 -13.574219 1.84375 -13.542969 1.730469 -13.515625 C 1.59375 -13.460938 1.480469 -13.265625 1.425781 -12.984375 C 1.144531 -12.066406 0.921875 -10.25 0.753906 -7.511719 C 0.53125 -4.777344 0.445312 -2.207031 0.445312 0.222656 C 0.445312 2.179688 0.503906 3.574219 0.671875 4.382812 C 0.78125 5.53125 0.949219 6.3125 1.144531 6.757812 C 1.257812 7.09375 1.394531 7.261719 1.5625 7.316406 C 1.675781 7.371094 2.066406 7.402344 2.738281 7.402344 C 3.628906 7.402344 4.132812 7.289062 4.300781 7.039062 C 4.46875 6.703125 4.664062 5.921875 4.859375 4.636719 C 5.027344 3.378906 5.109375 2.316406 5.109375 1.425781 L 5.109375 -0.195312 L 7.261719 -2.347656 C 9.046875 -4.105469 10.222656 -5.5 10.78125 -6.507812 C 11.339844 -7.511719 11.617188 -8.796875 11.644531 -10.332031 L 11.644531 -10.585938 C 11.644531 -11.589844 11.535156 -12.316406 11.339844 -12.789062 C 11.113281 -13.238281 10.722656 -13.601562 10.164062 -13.9375 C 9.664062 -14.160156 9.1875 -14.296875 8.742188 -14.296875 C 8.265625 -14.296875 7.734375 -14.160156 7.148438 -13.90625 Z M 7.148438 -13.90625 "/></g></g></g><g fill="#000000" fill-opacity="1"><g transform="translate(16.106545, 24.942248)"><g><path d="M 1.480469 -19.019531 C 1.199219 -18.851562 0.949219 -17.789062 0.753906 -15.890625 C 0.53125 -13.964844 0.445312 -11.953125 0.445312 -9.832031 C 0.445312 -8.65625 0.503906 -7.539062 0.613281 -6.480469 C 0.726562 -5.195312 0.894531 -3.992188 1.089844 -2.90625 C 1.257812 -1.816406 1.425781 -1.199219 1.5625 -1.089844 C 1.730469 -1.003906 2.121094 -0.921875 2.765625 -0.835938 C 3.183594 -0.78125 3.433594 -0.78125 3.492188 -0.78125 C 3.660156 -0.78125 3.769531 -0.808594 3.882812 -0.867188 C 3.9375 -0.921875 4.050781 -1.089844 4.1875 -1.3125 C 4.746094 -2.429688 5.054688 -4.972656 5.054688 -8.910156 C 5.054688 -13.015625 4.71875 -16.03125 4.105469 -17.984375 C 3.910156 -18.515625 3.796875 -18.878906 3.742188 -19.074219 C 3.238281 -19.101562 2.90625 -19.128906 2.738281 -19.128906 L 2.375 -19.128906 C 1.871094 -19.128906 1.5625 -19.074219 1.480469 -19.019531 Z M 1.480469 -19.019531 "/></g></g></g><g fill="#000000" fill-opacity="1"><g transform="translate(23.95134, 24.942248)"><g><path d="M 5.695312 -8.683594 C 5.25 -7.34375 4.746094 -6.199219 4.246094 -5.222656 C 3.714844 -4.21875 3.324219 -3.742188 3.101562 -3.742188 C 2.933594 -3.742188 2.847656 -3.964844 2.847656 -4.441406 C 2.847656 -5.109375 2.988281 -6.003906 3.296875 -7.175781 C 3.574219 -8.292969 3.9375 -9.242188 4.355469 -10.027344 C 4.496094 -10.359375 4.886719 -10.917969 5.558594 -11.644531 C 5.949219 -12.09375 6.226562 -12.398438 6.367188 -12.566406 C 6.394531 -12.230469 6.421875 -11.980469 6.421875 -11.839844 C 6.453125 -11.308594 6.199219 -10.25 5.695312 -8.683594 Z M 5.054688 -14.550781 C 4.609375 -14.269531 4.023438 -13.710938 3.296875 -12.875 C 2.570312 -12.035156 2.09375 -11.394531 1.871094 -10.949219 C 1.453125 -10.136719 1.117188 -9.132812 0.867188 -7.902344 C 0.585938 -6.648438 0.445312 -5.53125 0.445312 -4.578125 C 0.445312 -3.910156 0.503906 -3.433594 0.671875 -3.128906 C 1.117188 -2.039062 2.039062 -1.507812 3.464844 -1.507812 C 3.964844 -1.507812 4.328125 -1.535156 4.523438 -1.621094 C 4.71875 -1.675781 4.972656 -1.898438 5.304688 -2.234375 C 5.753906 -2.652344 6.171875 -3.183594 6.617188 -3.855469 C 6.898438 -4.382812 7.09375 -4.664062 7.261719 -4.664062 L 7.289062 -4.664062 C 7.34375 -4.636719 7.457031 -4.273438 7.566406 -3.601562 C 7.652344 -2.988281 7.847656 -2.316406 8.183594 -1.59375 C 8.488281 -0.867188 8.742188 -0.503906 8.964844 -0.503906 C 9.132812 -0.503906 9.496094 -0.640625 10.027344 -0.976562 C 10.417969 -1.199219 10.695312 -1.339844 10.835938 -1.425781 C 10.808594 -3.546875 10.78125 -5.109375 10.78125 -6.171875 C 10.695312 -10.695312 10.5 -13.433594 10.164062 -14.355469 C 10.054688 -14.632812 9.96875 -14.828125 9.941406 -14.941406 L 7.792969 -14.941406 C 6.3125 -14.941406 5.390625 -14.800781 5.054688 -14.550781 Z M 5.054688 -14.550781 "/></g></g></g><g fill="#000000" fill-opacity="1"><g transform="translate(37.60424, 24.942248)"><g><path d="M 8.796875 -13.292969 C 8.210938 -12.957031 7.566406 -12.371094 6.898438 -11.507812 C 6.199219 -10.640625 5.558594 -9.605469 4.941406 -8.433594 C 4.550781 -7.652344 4.300781 -7.148438 4.1875 -6.898438 C 4.105469 -7.429688 4.050781 -7.847656 4.023438 -8.125 C 3.628906 -11.113281 3.378906 -12.707031 3.265625 -12.902344 C 3.128906 -13.070312 2.597656 -13.183594 1.648438 -13.183594 C 1.230469 -13.183594 0.976562 -13.125 0.921875 -13.070312 C 0.835938 -12.984375 0.726562 -12.539062 0.613281 -11.757812 C 0.503906 -11.171875 0.445312 -10.554688 0.445312 -9.886719 C 0.445312 -8.601562 0.558594 -7.175781 0.835938 -5.667969 C 1.089844 -4.160156 1.425781 -2.90625 1.84375 -1.898438 C 2.261719 -0.78125 2.542969 -0.0820312 2.679688 0.140625 C 2.792969 0.363281 2.960938 0.476562 3.183594 0.476562 C 3.238281 0.476562 3.324219 0.476562 3.433594 0.445312 C 3.546875 0.417969 3.660156 0.390625 3.714844 0.390625 C 4.300781 0.277344 4.609375 0.222656 4.636719 0.195312 C 4.691406 0.140625 4.832031 -0.390625 5.109375 -1.453125 C 5.417969 -2.625 6.171875 -4.46875 7.371094 -6.980469 C 8.574219 -9.46875 9.410156 -10.890625 9.859375 -11.28125 C 10.054688 -11.449219 10.25 -11.476562 10.472656 -11.394531 C 10.585938 -11.339844 10.667969 -11.171875 10.695312 -10.890625 C 10.722656 -10.613281 10.753906 -9.996094 10.753906 -9.105469 C 10.753906 -7.652344 10.835938 -5.921875 11.058594 -3.855469 C 11.28125 -1.84375 11.394531 -0.699219 11.394531 -0.445312 C 11.394531 -0.308594 11.421875 -0.222656 11.507812 -0.195312 C 11.5625 -0.140625 11.730469 -0.113281 11.953125 -0.113281 C 11.980469 -0.113281 12.066406 -0.113281 12.175781 -0.140625 L 12.425781 -0.140625 C 12.957031 -0.167969 13.320312 -0.195312 13.488281 -0.195312 C 13.542969 -1.0625 13.601562 -1.703125 13.65625 -2.152344 C 13.738281 -2.90625 13.796875 -3.882812 13.796875 -5.082031 C 13.796875 -8.238281 13.601562 -10.445312 13.210938 -11.703125 C 12.957031 -12.511719 12.707031 -13.042969 12.425781 -13.320312 C 12.175781 -13.515625 11.671875 -13.65625 10.949219 -13.769531 C 10.554688 -13.796875 10.332031 -13.824219 10.277344 -13.824219 C 9.886719 -13.824219 9.410156 -13.628906 8.796875 -13.292969 Z M 8.796875 -13.292969 "/></g></g></g><g fill="#000000" fill-opacity="1"><g transform="translate(54.161191, 24.942248)"><g><path d="M 3.378906 -19.242188 C 3.183594 -18.824219 2.90625 -17.84375 2.570312 -16.28125 C 2.234375 -14.71875 2.066406 -13.710938 2.066406 -13.320312 C 2.066406 -13.152344 2.011719 -13.015625 1.898438 -12.902344 C 1.757812 -12.789062 1.535156 -12.679688 1.230469 -12.566406 C 0.699219 -12.34375 0.445312 -12.09375 0.445312 -11.867188 C 0.445312 -11.730469 0.53125 -11.394531 0.753906 -10.863281 C 0.949219 -10.304688 1.171875 -10.027344 1.425781 -10.027344 C 1.5625 -10.027344 1.675781 -9.832031 1.730469 -9.4375 C 1.789062 -9.046875 1.871094 -8.042969 1.925781 -6.453125 C 1.984375 -3.992188 2.152344 -2.261719 2.429688 -1.3125 C 2.707031 -0.308594 2.90625 0.390625 3.015625 0.78125 C 3.070312 1.117188 3.183594 1.285156 3.351562 1.285156 C 3.464844 1.285156 3.855469 1.171875 4.496094 0.894531 C 4.859375 0.753906 5.136719 0.613281 5.304688 0.445312 C 5.472656 0.308594 5.585938 0.113281 5.695312 -0.167969 C 6.089844 -1.394531 6.3125 -3.742188 6.3125 -7.148438 L 6.3125 -10.667969 L 6.898438 -10.753906 C 7.679688 -10.917969 8.238281 -11.058594 8.519531 -11.171875 C 8.796875 -11.308594 8.964844 -11.507812 8.964844 -11.757812 C 8.964844 -11.980469 8.824219 -12.34375 8.601562 -12.820312 C 8.460938 -13.097656 8.351562 -13.265625 8.265625 -13.378906 C 8.183594 -13.433594 8.042969 -13.488281 7.875 -13.488281 C 7.792969 -13.488281 7.566406 -13.460938 7.175781 -13.433594 C 6.648438 -13.378906 6.285156 -13.320312 6.117188 -13.320312 L 6.117188 -16.449219 C 6.117188 -18.488281 6.03125 -19.578125 5.921875 -19.6875 C 5.695312 -19.800781 5.277344 -19.882812 4.71875 -19.941406 C 4.1875 -19.996094 3.855469 -20.023438 3.6875 -20.050781 C 3.519531 -19.632812 3.433594 -19.355469 3.378906 -19.242188 Z M 3.378906 -19.242188 "/></g></g></g><g fill="#000000" fill-opacity="1"><g transform="translate(65.915285, 24.942248)"><g><path d="M 0.808594 -8.683594 C 0.53125 -8.628906 0.390625 -8.488281 0.390625 -8.292969 C 0.390625 -8.238281 0.390625 -8.070312 0.445312 -7.792969 C 0.503906 -7.34375 0.558594 -7.066406 0.613281 -6.953125 C 0.640625 -6.84375 0.726562 -6.703125 0.835938 -6.507812 C 0.949219 -6.339844 1.117188 -6.226562 1.339844 -6.226562 C 1.535156 -6.199219 1.84375 -6.199219 2.289062 -6.199219 C 2.484375 -6.199219 3.210938 -6.199219 4.496094 -6.253906 C 6.84375 -6.3125 8.015625 -6.394531 8.015625 -6.480469 C 8.015625 -6.703125 7.929688 -7.066406 7.792969 -7.566406 C 7.625 -8.097656 7.511719 -8.460938 7.457031 -8.628906 L 5.585938 -8.628906 C 4.382812 -8.628906 3.351562 -8.628906 2.484375 -8.683594 C 2.039062 -8.714844 1.703125 -8.742188 1.480469 -8.742188 C 1.171875 -8.742188 0.949219 -8.714844 0.808594 -8.683594 Z M 0.808594 -8.683594 "/></g></g></g><g fill="#000000" fill-opacity="1"><g transform="translate(76.636207, 24.942248)"><g><path d="M 9.4375 -9.4375 C 9.4375 -8.125 9.273438 -6.675781 8.9375 -5.109375 C 8.601562 -3.519531 8.292969 -2.738281 8.042969 -2.738281 C 7.875 -2.738281 7.371094 -2.988281 6.535156 -3.546875 C 5.894531 -3.9375 5.472656 -4.21875 5.25 -4.382812 C 5.808594 -5.5 6.253906 -6.367188 6.535156 -6.953125 C 7.820312 -9.578125 8.683594 -10.890625 9.132812 -10.890625 C 9.1875 -10.890625 9.214844 -10.863281 9.273438 -10.808594 C 9.382812 -10.640625 9.4375 -10.195312 9.4375 -9.4375 Z M 1.0625 -18.207031 C 0.613281 -17.484375 0.417969 -14.96875 0.417969 -10.722656 C 0.417969 -7.484375 0.558594 -4.636719 0.867188 -2.179688 C 0.921875 -1.621094 0.976562 -1.285156 1.089844 -1.171875 C 1.171875 -1.035156 1.453125 -0.867188 1.898438 -0.699219 C 2.402344 -0.445312 2.792969 -0.335938 3.015625 -0.335938 C 3.238281 -0.335938 3.378906 -0.53125 3.464844 -0.949219 C 3.492188 -1.117188 3.546875 -1.230469 3.628906 -1.339844 C 3.6875 -1.425781 3.769531 -1.453125 3.824219 -1.425781 C 5.445312 -0.699219 6.785156 -0.308594 7.847656 -0.195312 C 8.488281 -0.113281 8.9375 -0.0546875 9.160156 -0.0546875 C 9.496094 -0.445312 9.746094 -0.726562 9.914062 -0.921875 C 10.640625 -1.703125 11.199219 -2.738281 11.617188 -4.023438 C 12.007812 -5.277344 12.203125 -6.589844 12.203125 -7.929688 C 12.203125 -9.46875 11.925781 -10.78125 11.421875 -11.839844 C 11.003906 -12.59375 10.640625 -13.097656 10.359375 -13.347656 C 10.054688 -13.574219 9.636719 -13.683594 9.105469 -13.683594 C 7.765625 -13.683594 6.453125 -12.820312 5.222656 -11.144531 C 4.71875 -10.472656 4.414062 -10.054688 4.273438 -9.832031 C 4.1875 -11.28125 4.132812 -12.398438 4.105469 -13.125 C 3.992188 -15.472656 3.855469 -16.867188 3.714844 -17.371094 C 3.546875 -17.816406 3.464844 -18.097656 3.433594 -18.265625 C 2.875 -18.292969 2.484375 -18.320312 2.316406 -18.320312 L 2.011719 -18.320312 C 1.453125 -18.320312 1.117188 -18.265625 1.0625 -18.207031 Z M 1.0625 -18.207031 "/></g></g></g><g fill="#000000" fill-opacity="1"><g transform="translate(91.65736, 24.942248)"><g><path d="M 5.695312 -8.683594 C 5.25 -7.34375 4.746094 -6.199219 4.246094 -5.222656 C 3.714844 -4.21875 3.324219 -3.742188 3.101562 -3.742188 C 2.933594 -3.742188 2.847656 -3.964844 2.847656 -4.441406 C 2.847656 -5.109375 2.988281 -6.003906 3.296875 -7.175781 C 3.574219 -8.292969 3.9375 -9.242188 4.355469 -10.027344 C 4.496094 -10.359375 4.886719 -10.917969 5.558594 -11.644531 C 5.949219 -12.09375 6.226562 -12.398438 6.367188 -12.566406 C 6.394531 -12.230469 6.421875 -11.980469 6.421875 -11.839844 C 6.453125 -11.308594 6.199219 -10.25 5.695312 -8.683594 Z M 5.054688 -14.550781 C 4.609375 -14.269531 4.023438 -13.710938 3.296875 -12.875 C 2.570312 -12.035156 2.09375 -11.394531 1.871094 -10.949219 C 1.453125 -10.136719 1.117188 -9.132812 0.867188 -7.902344 C 0.585938 -6.648438 0.445312 -5.53125 0.445312 -4.578125 C 0.445312 -3.910156 0.503906 -3.433594 0.671875 -3.128906 C 1.117188 -2.039062 2.039062 -1.507812 3.464844 -1.507812 C 3.964844 -1.507812 4.328125 -1.535156 4.523438 -1.621094 C 4.71875 -1.675781 4.972656 -1.898438 5.304688 -2.234375 C 5.753906 -2.652344 6.171875 -3.183594 6.617188 -3.855469 C 6.898438 -4.382812 7.09375 -4.664062 7.261719 -4.664062 L 7.289062 -4.664062 C 7.34375 -4.636719 7.457031 -4.273438 7.566406 -3.601562 C 7.652344 -2.988281 7.847656 -2.316406 8.183594 -1.59375 C 8.488281 -0.867188 8.742188 -0.503906 8.964844 -0.503906 C 9.132812 -0.503906 9.496094 -0.640625 10.027344 -0.976562 C 10.417969 -1.199219 10.695312 -1.339844 10.835938 -1.425781 C 10.808594 -3.546875 10.78125 -5.109375 10.78125 -6.171875 C 10.695312 -10.695312 10.5 -13.433594 10.164062 -14.355469 C 10.054688 -14.632812 9.96875 -14.828125 9.941406 -14.941406 L 7.792969 -14.941406 C 6.3125 -14.941406 5.390625 -14.800781 5.054688 -14.550781 Z M 5.054688 -14.550781 "/></g></g></g><g fill="#000000" fill-opacity="1"><g transform="translate(105.310264, 24.942248)"><g><path d="M 6.171875 -15.75 C 5.667969 -15.613281 5.222656 -15.414062 4.832031 -15.136719 C 4.441406 -14.828125 3.796875 -14.242188 2.90625 -13.378906 C 2.121094 -12.59375 1.648438 -12.066406 1.425781 -11.757812 C 1.199219 -11.421875 0.976562 -10.917969 0.808594 -10.277344 C 0.558594 -9.496094 0.445312 -8.910156 0.445312 -8.460938 C 0.445312 -7.847656 0.671875 -7.457031 1.171875 -7.289062 C 1.648438 -7.066406 2.484375 -6.953125 3.714844 -6.953125 C 5.167969 -6.898438 5.894531 -6.84375 5.894531 -6.785156 C 5.894531 -6.535156 5.53125 -5.976562 4.859375 -5.109375 C 4.132812 -4.21875 3.574219 -3.628906 3.128906 -3.324219 C 2.402344 -2.765625 1.953125 -2.347656 1.730469 -2.039062 C 1.59375 -1.816406 1.535156 -1.675781 1.535156 -1.621094 C 1.535156 -1.480469 1.757812 -1.230469 2.234375 -0.835938 C 2.792969 -0.335938 3.15625 -0.113281 3.351562 -0.113281 C 3.546875 -0.113281 4.21875 -0.585938 5.335938 -1.59375 C 6.003906 -2.207031 6.507812 -2.679688 6.8125 -3.070312 C 7.09375 -3.433594 7.402344 -3.9375 7.707031 -4.578125 C 8.15625 -5.53125 8.378906 -6.367188 8.378906 -7.09375 L 8.378906 -7.371094 C 8.378906 -7.988281 8.324219 -8.378906 8.265625 -8.574219 C 8.210938 -8.742188 8.015625 -8.992188 7.707031 -9.273438 C 7.429688 -9.496094 7.175781 -9.664062 6.953125 -9.746094 C 6.703125 -9.800781 6.285156 -9.859375 5.695312 -9.859375 L 5.167969 -9.859375 C 4.886719 -9.832031 4.691406 -9.832031 4.523438 -9.832031 L 4.1875 -9.832031 C 3.6875 -9.832031 3.464844 -9.914062 3.464844 -10.082031 C 3.464844 -10.25 3.855469 -10.78125 4.664062 -11.617188 C 5.445312 -12.457031 5.921875 -12.902344 6.089844 -12.902344 C 6.253906 -12.902344 6.421875 -12.425781 6.535156 -11.476562 C 6.589844 -11.199219 6.675781 -11.058594 6.785156 -11.03125 C 6.898438 -10.976562 7.234375 -10.949219 7.820312 -10.949219 L 9.046875 -10.949219 C 9.046875 -11.671875 9.078125 -12.203125 9.105469 -12.59375 L 9.105469 -13.042969 C 9.105469 -13.210938 9.132812 -13.347656 9.132812 -13.433594 C 9.132812 -14.4375 8.910156 -15.136719 8.519531 -15.527344 C 8.265625 -15.75 7.875 -15.890625 7.34375 -15.890625 C 6.953125 -15.890625 6.5625 -15.835938 6.171875 -15.75 Z M 6.171875 -15.75 "/></g></g></g><g fill="#000000" fill-opacity="1"><g transform="translate(117.231906, 24.942248)"><g><path d="M 7.207031 -11.703125 C 7.261719 -11.144531 7.316406 -10.835938 7.316406 -10.78125 C 7.316406 -10.5 7.234375 -10.277344 7.121094 -10.109375 C 6.980469 -9.941406 6.703125 -9.71875 6.3125 -9.4375 C 5.753906 -9.019531 5.109375 -8.824219 4.382812 -8.824219 C 3.660156 -8.824219 3.324219 -8.851562 3.324219 -8.910156 C 3.324219 -9.019531 3.433594 -9.410156 3.714844 -10.109375 C 3.9375 -10.78125 4.355469 -11.394531 4.941406 -11.980469 C 5.5 -12.539062 6.003906 -12.847656 6.421875 -12.847656 L 6.507812 -12.847656 C 6.757812 -12.820312 6.925781 -12.734375 6.980469 -12.625 C 7.039062 -12.484375 7.121094 -12.175781 7.207031 -11.703125 Z M 4.578125 -14.914062 C 3.574219 -14.410156 2.738281 -13.628906 2.039062 -12.566406 C 1.339844 -11.449219 0.894531 -10.222656 0.671875 -8.824219 C 0.503906 -8.097656 0.445312 -7.234375 0.445312 -6.171875 C 0.445312 -4.664062 0.558594 -3.714844 0.808594 -3.296875 C 1.230469 -2.402344 2.011719 -1.59375 3.15625 -0.894531 C 4.273438 -0.167969 5.445312 0.25 6.703125 0.417969 C 7.039062 0.476562 7.234375 0.476562 7.34375 0.476562 C 7.679688 0.476562 8.070312 0.363281 8.519531 0.113281 C 8.992188 -0.167969 9.382812 -0.503906 9.71875 -0.921875 C 9.941406 -1.171875 10.082031 -1.339844 10.195312 -1.453125 C 9.859375 -1.84375 9.605469 -2.121094 9.46875 -2.316406 C 9.046875 -2.792969 8.769531 -3.042969 8.65625 -3.042969 C 8.546875 -3.042969 8.433594 -2.960938 8.265625 -2.847656 C 7.988281 -2.652344 7.457031 -2.542969 6.730469 -2.511719 L 6.421875 -2.511719 C 5.363281 -2.511719 4.523438 -2.738281 3.964844 -3.210938 C 3.378906 -3.660156 3.101562 -4.300781 3.101562 -5.136719 L 3.101562 -6.117188 C 3.742188 -6.171875 4.246094 -6.199219 4.578125 -6.226562 C 5.5 -6.285156 6.367188 -6.507812 7.148438 -6.898438 C 8.210938 -7.429688 8.9375 -8.015625 9.355469 -8.683594 C 9.746094 -9.300781 9.96875 -10.222656 9.996094 -11.449219 C 9.996094 -13.070312 9.523438 -14.242188 8.601562 -14.914062 C 8.183594 -15.191406 7.566406 -15.359375 6.730469 -15.359375 C 5.894531 -15.359375 5.195312 -15.191406 4.578125 -14.914062 Z M 4.578125 -14.914062 "/></g></g></g><g fill="#000000" fill-opacity="1"><g transform="translate(130.214643, 24.942248)"><g><path d="M 6.871094 -9.746094 C 6.507812 -8.324219 6.253906 -7.371094 6.144531 -6.925781 C 5.835938 -5.726562 5.613281 -4.941406 5.472656 -4.609375 C 5.304688 -4.21875 5.027344 -3.855469 4.664062 -3.492188 C 4.160156 -2.988281 3.824219 -2.765625 3.628906 -2.765625 C 3.351562 -2.765625 3.210938 -3.464844 3.210938 -4.859375 C 3.210938 -6.144531 3.265625 -6.953125 3.40625 -7.316406 C 3.519531 -7.679688 4.050781 -8.324219 4.972656 -9.273438 C 5.753906 -10.054688 6.199219 -10.472656 6.367188 -10.472656 C 6.453125 -10.472656 6.535156 -10.417969 6.617188 -10.332031 C 6.785156 -10.054688 6.871094 -9.859375 6.871094 -9.746094 Z M 8.210938 -18.542969 C 8.097656 -17.84375 8.015625 -17.121094 8.015625 -16.335938 C 7.960938 -15.386719 7.847656 -14.605469 7.652344 -13.9375 C 7.511719 -13.378906 7.34375 -13.125 7.175781 -13.125 C 7.148438 -13.125 7.039062 -13.125 6.871094 -13.183594 C 6.8125 -13.183594 6.703125 -13.210938 6.589844 -13.210938 C 5.808594 -13.210938 4.832031 -12.734375 3.660156 -11.8125 C 2.484375 -10.863281 1.648438 -9.886719 1.144531 -8.824219 C 0.671875 -7.902344 0.445312 -6.980469 0.445312 -6.03125 C 0.445312 -5.585938 0.503906 -4.914062 0.671875 -3.964844 C 0.835938 -2.90625 1.0625 -2.121094 1.339844 -1.621094 C 1.621094 -1.117188 2.011719 -0.726562 2.570312 -0.503906 C 2.847656 -0.390625 3.183594 -0.335938 3.519531 -0.335938 C 4.246094 -0.335938 4.972656 -0.558594 5.753906 -1.0625 C 6.535156 -1.507812 7.121094 -2.121094 7.566406 -2.875 C 7.960938 -3.546875 8.183594 -3.882812 8.292969 -3.9375 C 8.351562 -3.9375 8.40625 -3.628906 8.488281 -3.070312 C 8.574219 -2.484375 8.65625 -1.898438 8.769531 -1.3125 C 8.824219 -0.699219 8.882812 -0.390625 8.910156 -0.390625 C 8.964844 -0.390625 8.992188 -0.363281 9.019531 -0.363281 C 9.1875 -0.363281 9.523438 -0.445312 10.027344 -0.613281 C 10.445312 -0.726562 10.722656 -0.867188 10.890625 -0.976562 C 11.03125 -1.089844 11.144531 -1.257812 11.199219 -1.480469 C 11.308594 -1.871094 11.394531 -4.132812 11.476562 -8.324219 C 11.476562 -9.160156 11.507812 -10.25 11.507812 -11.644531 C 11.507812 -15.359375 11.226562 -17.679688 10.695312 -18.570312 C 10.527344 -18.851562 10.359375 -19.019531 10.222656 -19.101562 C 10.054688 -19.15625 9.773438 -19.1875 9.328125 -19.1875 C 8.824219 -19.1875 8.519531 -19.15625 8.433594 -19.101562 C 8.324219 -19.046875 8.265625 -18.851562 8.210938 -18.542969 Z M 8.210938 -18.542969 "/></g></g></g><g fill="#000000" fill-opacity="1"><g transform="translate(27.874909, 49.692246)"><g><path d="M 9.273438 -11.703125 C 9.300781 -11.617188 9.328125 -11.507812 9.328125 -11.367188 C 9.328125 -10.917969 9.214844 -10.332031 9.046875 -9.605469 C 8.851562 -8.824219 8.65625 -8.292969 8.488281 -8.015625 C 8.183594 -7.511719 7.566406 -6.730469 6.617188 -5.726562 C 5.863281 -4.941406 5.363281 -4.441406 5.136719 -4.21875 C 5.082031 -4.609375 5.054688 -4.914062 5.027344 -5.136719 C 4.914062 -5.921875 4.859375 -6.617188 4.859375 -7.234375 C 4.832031 -7.820312 4.804688 -8.210938 4.804688 -8.40625 C 5.417969 -9.019531 5.863281 -9.496094 6.199219 -9.832031 C 7.484375 -11.171875 8.40625 -11.839844 8.964844 -11.839844 C 9.132812 -11.839844 9.214844 -11.785156 9.273438 -11.703125 Z M 7.148438 -13.90625 C 6.535156 -13.601562 5.894531 -13.238281 5.277344 -12.789062 C 4.804688 -12.425781 4.496094 -12.203125 4.355469 -12.09375 C 4.246094 -12.457031 4.160156 -12.707031 4.132812 -12.847656 C 4.050781 -13.210938 3.992188 -13.460938 3.964844 -13.574219 L 2.765625 -13.574219 C 2.207031 -13.574219 1.84375 -13.542969 1.730469 -13.515625 C 1.59375 -13.460938 1.480469 -13.265625 1.425781 -12.984375 C 1.144531 -12.066406 0.921875 -10.25 0.753906 -7.511719 C 0.53125 -4.777344 0.445312 -2.207031 0.445312 0.222656 C 0.445312 2.179688 0.503906 3.574219 0.671875 4.382812 C 0.78125 5.53125 0.949219 6.3125 1.144531 6.757812 C 1.257812 7.09375 1.394531 7.261719 1.5625 7.316406 C 1.675781 7.371094 2.066406 7.402344 2.738281 7.402344 C 3.628906 7.402344 4.132812 7.289062 4.300781 7.039062 C 4.46875 6.703125 4.664062 5.921875 4.859375 4.636719 C 5.027344 3.378906 5.109375 2.316406 5.109375 1.425781 L 5.109375 -0.195312 L 7.261719 -2.347656 C 9.046875 -4.105469 10.222656 -5.5 10.78125 -6.507812 C 11.339844 -7.511719 11.617188 -8.796875 11.644531 -10.332031 L 11.644531 -10.585938 C 11.644531 -11.589844 11.535156 -12.316406 11.339844 -12.789062 C 11.113281 -13.238281 10.722656 -13.601562 10.164062 -13.9375 C 9.664062 -14.160156 9.1875 -14.296875 8.742188 -14.296875 C 8.265625 -14.296875 7.734375 -14.160156 7.148438 -13.90625 Z M 7.148438 -13.90625 "/></g></g></g><g fill="#000000" fill-opacity="1"><g transform="translate(42.309668, 49.692246)"><g><path d="M 8.015625 -16.140625 C 7.066406 -15.75 6.117188 -14.828125 5.109375 -13.320312 C 4.414062 -12.289062 4.023438 -11.785156 3.964844 -11.785156 C 3.910156 -11.785156 3.714844 -12.121094 3.351562 -12.789062 C 3.128906 -13.183594 2.933594 -13.460938 2.765625 -13.628906 C 2.597656 -13.769531 2.402344 -13.851562 2.179688 -13.878906 L 2.011719 -13.878906 C 1.621094 -13.878906 1.285156 -13.824219 1.003906 -13.738281 C 0.753906 -13.628906 0.585938 -13.488281 0.53125 -13.347656 C 0.476562 -13.183594 0.445312 -12.820312 0.445312 -12.203125 C 0.445312 -10.863281 0.640625 -9.019531 1.089844 -6.675781 C 1.507812 -4.328125 1.953125 -2.652344 2.402344 -1.675781 C 2.542969 -1.3125 2.679688 -1.089844 2.820312 -1.035156 C 2.933594 -0.949219 3.210938 -0.921875 3.601562 -0.921875 C 4.21875 -0.921875 4.664062 -1.035156 4.886719 -1.285156 C 5.082031 -1.507812 5.222656 -1.984375 5.304688 -2.765625 C 5.363281 -2.988281 5.390625 -3.433594 5.390625 -4.105469 C 5.390625 -4.777344 5.363281 -5.277344 5.304688 -5.558594 C 5.25 -5.835938 5.25 -6.171875 5.25 -6.617188 C 5.25 -7.007812 5.304688 -7.429688 5.445312 -7.847656 C 5.667969 -8.460938 6.003906 -9.214844 6.507812 -10.136719 C 7.007812 -11.03125 7.429688 -11.703125 7.765625 -12.09375 C 8.042969 -12.425781 8.238281 -12.679688 8.351562 -12.789062 C 8.351562 -12.121094 8.378906 -11.671875 8.378906 -11.449219 L 8.378906 -10.109375 C 8.769531 -9.914062 9.046875 -9.773438 9.242188 -9.691406 C 9.605469 -9.46875 9.914062 -9.382812 10.164062 -9.382812 C 10.222656 -9.382812 10.25 -9.382812 10.277344 -9.410156 C 10.613281 -9.746094 10.808594 -10.976562 10.808594 -13.097656 C 10.808594 -14.382812 10.667969 -15.25 10.417969 -15.695312 C 10.136719 -16.113281 9.800781 -16.335938 9.410156 -16.335938 L 9.242188 -16.335938 C 8.714844 -16.335938 8.292969 -16.253906 8.015625 -16.140625 Z M 8.015625 -16.140625 "/></g></g></g><g fill="#000000" fill-opacity="1"><g transform="translate(55.934642, 49.692246)"><g><path d="M 7.039062 -11.144531 C 7.539062 -10.917969 7.988281 -10.5 8.378906 -9.886719 C 8.601562 -9.496094 8.769531 -9.160156 8.851562 -8.882812 C 8.9375 -8.601562 8.992188 -8.15625 8.992188 -7.597656 C 8.992188 -5.417969 8.601562 -4.023438 7.820312 -3.378906 C 7.039062 -2.707031 6.089844 -2.375 5.027344 -2.375 C 4.355469 -2.375 3.824219 -2.511719 3.492188 -2.847656 C 3.238281 -3.070312 3.128906 -3.601562 3.128906 -4.382812 C 3.128906 -4.886719 3.238281 -5.863281 3.464844 -7.261719 C 3.6875 -8.65625 3.882812 -9.4375 4.023438 -9.664062 C 4.078125 -9.746094 4.441406 -10.082031 5.136719 -10.640625 C 5.808594 -11.199219 6.199219 -11.476562 6.253906 -11.476562 C 6.253906 -11.476562 6.535156 -11.367188 7.039062 -11.144531 Z M 3.265625 -12.820312 C 2.597656 -12.261719 2.121094 -11.671875 1.816406 -11.085938 C 1.480469 -10.472656 1.171875 -9.523438 0.894531 -8.210938 C 0.585938 -6.953125 0.445312 -5.835938 0.445312 -4.832031 C 0.445312 -4.160156 0.53125 -3.492188 0.699219 -2.847656 C 0.894531 -2.011719 1.453125 -1.3125 2.375 -0.753906 C 3.265625 -0.167969 4.300781 0.113281 5.445312 0.113281 C 7.09375 0.113281 8.519531 -0.445312 9.691406 -1.5625 C 10.136719 -2.011719 10.472656 -2.375 10.667969 -2.707031 C 10.863281 -3.042969 11.058594 -3.519531 11.253906 -4.132812 C 11.589844 -5.195312 11.757812 -6.253906 11.757812 -7.316406 C 11.757812 -8.460938 11.5625 -9.382812 11.226562 -10.109375 C 10.109375 -12.484375 8.265625 -13.683594 5.667969 -13.683594 C 5.027344 -13.683594 4.609375 -13.628906 4.382812 -13.574219 C 4.132812 -13.460938 3.769531 -13.210938 3.265625 -12.820312 Z M 3.265625 -12.820312 "/></g></g></g><g fill="#000000" fill-opacity="1"><g transform="translate(70.481095, 49.692246)"><g><path d="M 3.378906 -19.242188 C 3.183594 -18.824219 2.90625 -17.84375 2.570312 -16.28125 C 2.234375 -14.71875 2.066406 -13.710938 2.066406 -13.320312 C 2.066406 -13.152344 2.011719 -13.015625 1.898438 -12.902344 C 1.757812 -12.789062 1.535156 -12.679688 1.230469 -12.566406 C 0.699219 -12.34375 0.445312 -12.09375 0.445312 -11.867188 C 0.445312 -11.730469 0.53125 -11.394531 0.753906 -10.863281 C 0.949219 -10.304688 1.171875 -10.027344 1.425781 -10.027344 C 1.5625 -10.027344 1.675781 -9.832031 1.730469 -9.4375 C 1.789062 -9.046875 1.871094 -8.042969 1.925781 -6.453125 C 1.984375 -3.992188 2.152344 -2.261719 2.429688 -1.3125 C 2.707031 -0.308594 2.90625 0.390625 3.015625 0.78125 C 3.070312 1.117188 3.183594 1.285156 3.351562 1.285156 C 3.464844 1.285156 3.855469 1.171875 4.496094 0.894531 C 4.859375 0.753906 5.136719 0.613281 5.304688 0.445312 C 5.472656 0.308594 5.585938 0.113281 5.695312 -0.167969 C 6.089844 -1.394531 6.3125 -3.742188 6.3125 -7.148438 L 6.3125 -10.667969 L 6.898438 -10.753906 C 7.679688 -10.917969 8.238281 -11.058594 8.519531 -11.171875 C 8.796875 -11.308594 8.964844 -11.507812 8.964844 -11.757812 C 8.964844 -11.980469 8.824219 -12.34375 8.601562 -12.820312 C 8.460938 -13.097656 8.351562 -13.265625 8.265625 -13.378906 C 8.183594 -13.433594 8.042969 -13.488281 7.875 -13.488281 C 7.792969 -13.488281 7.566406 -13.460938 7.175781 -13.433594 C 6.648438 -13.378906 6.285156 -13.320312 6.117188 -13.320312 L 6.117188 -16.449219 C 6.117188 -18.488281 6.03125 -19.578125 5.921875 -19.6875 C 5.695312 -19.800781 5.277344 -19.882812 4.71875 -19.941406 C 4.1875 -19.996094 3.855469 -20.023438 3.6875 -20.050781 C 3.519531 -19.632812 3.433594 -19.355469 3.378906 -19.242188 Z M 3.378906 -19.242188 "/></g></g></g><g fill="#000000" fill-opacity="1"><g transform="translate(82.235189, 49.692246)"><g><path d="M 7.207031 -11.703125 C 7.261719 -11.144531 7.316406 -10.835938 7.316406 -10.78125 C 7.316406 -10.5 7.234375 -10.277344 7.121094 -10.109375 C 6.980469 -9.941406 6.703125 -9.71875 6.3125 -9.4375 C 5.753906 -9.019531 5.109375 -8.824219 4.382812 -8.824219 C 3.660156 -8.824219 3.324219 -8.851562 3.324219 -8.910156 C 3.324219 -9.019531 3.433594 -9.410156 3.714844 -10.109375 C 3.9375 -10.78125 4.355469 -11.394531 4.941406 -11.980469 C 5.5 -12.539062 6.003906 -12.847656 6.421875 -12.847656 L 6.507812 -12.847656 C 6.757812 -12.820312 6.925781 -12.734375 6.980469 -12.625 C 7.039062 -12.484375 7.121094 -12.175781 7.207031 -11.703125 Z M 4.578125 -14.914062 C 3.574219 -14.410156 2.738281 -13.628906 2.039062 -12.566406 C 1.339844 -11.449219 0.894531 -10.222656 0.671875 -8.824219 C 0.503906 -8.097656 0.445312 -7.234375 0.445312 -6.171875 C 0.445312 -4.664062 0.558594 -3.714844 0.808594 -3.296875 C 1.230469 -2.402344 2.011719 -1.59375 3.15625 -0.894531 C 4.273438 -0.167969 5.445312 0.25 6.703125 0.417969 C 7.039062 0.476562 7.234375 0.476562 7.34375 0.476562 C 7.679688 0.476562 8.070312 0.363281 8.519531 0.113281 C 8.992188 -0.167969 9.382812 -0.503906 9.71875 -0.921875 C 9.941406 -1.171875 10.082031 -1.339844 10.195312 -1.453125 C 9.859375 -1.84375 9.605469 -2.121094 9.46875 -2.316406 C 9.046875 -2.792969 8.769531 -3.042969 8.65625 -3.042969 C 8.546875 -3.042969 8.433594 -2.960938 8.265625 -2.847656 C 7.988281 -2.652344 7.457031 -2.542969 6.730469 -2.511719 L 6.421875 -2.511719 C 5.363281 -2.511719 4.523438 -2.738281 3.964844 -3.210938 C 3.378906 -3.660156 3.101562 -4.300781 3.101562 -5.136719 L 3.101562 -6.117188 C 3.742188 -6.171875 4.246094 -6.199219 4.578125 -6.226562 C 5.5 -6.285156 6.367188 -6.507812 7.148438 -6.898438 C 8.210938 -7.429688 8.9375 -8.015625 9.355469 -8.683594 C 9.746094 -9.300781 9.96875 -10.222656 9.996094 -11.449219 C 9.996094 -13.070312 9.523438 -14.242188 8.601562 -14.914062 C 8.183594 -15.191406 7.566406 -15.359375 6.730469 -15.359375 C 5.894531 -15.359375 5.195312 -15.191406 4.578125 -14.914062 Z M 4.578125 -14.914062 "/></g></g></g><g fill="#000000" fill-opacity="1"><g transform="translate(95.217921, 49.692246)"><g><path d="M 1.144531 -12.425781 C 0.921875 -12.148438 0.753906 -11.421875 0.640625 -10.195312 C 0.476562 -8.964844 0.417969 -7.597656 0.417969 -6.089844 C 0.417969 -4.578125 0.503906 -3.210938 0.671875 -2.011719 C 0.78125 -1.117188 0.894531 -0.558594 0.976562 -0.277344 C 1.0625 0 1.230469 0.140625 1.480469 0.140625 C 1.59375 0.140625 1.925781 0.0546875 2.457031 -0.113281 C 2.738281 -0.195312 2.90625 -0.335938 3.015625 -0.503906 C 3.101562 -0.671875 3.183594 -1.0625 3.296875 -1.675781 C 3.519531 -3.296875 3.660156 -6.03125 3.660156 -9.941406 C 3.660156 -11.085938 3.628906 -11.757812 3.574219 -11.980469 C 3.492188 -12.261719 3.378906 -12.425781 3.265625 -12.484375 C 3.15625 -12.539062 2.847656 -12.59375 2.375 -12.652344 L 2.066406 -12.652344 C 1.507812 -12.652344 1.199219 -12.566406 1.144531 -12.425781 Z M 1.3125 -17.59375 C 1.171875 -17.511719 1.117188 -17.148438 1.117188 -16.503906 L 1.117188 -16.113281 C 1.117188 -15.613281 1.144531 -15.277344 1.171875 -15.109375 C 1.171875 -14.886719 1.535156 -14.773438 2.234375 -14.746094 L 2.511719 -14.746094 C 2.597656 -14.71875 2.652344 -14.71875 2.707031 -14.71875 C 3.101562 -14.71875 3.378906 -14.855469 3.546875 -15.136719 C 3.628906 -15.359375 3.6875 -15.640625 3.6875 -15.972656 C 3.6875 -16.8125 3.546875 -17.371094 3.296875 -17.59375 C 3.128906 -17.707031 2.792969 -17.761719 2.289062 -17.761719 C 1.789062 -17.761719 1.480469 -17.707031 1.3125 -17.59375 Z M 1.3125 -17.59375 "/></g></g></g><g fill="#000000" fill-opacity="1"><g transform="translate(101.722382, 49.692246)"><g><path d="M 8.796875 -13.292969 C 8.210938 -12.957031 7.566406 -12.371094 6.898438 -11.507812 C 6.199219 -10.640625 5.558594 -9.605469 4.941406 -8.433594 C 4.550781 -7.652344 4.300781 -7.148438 4.1875 -6.898438 C 4.105469 -7.429688 4.050781 -7.847656 4.023438 -8.125 C 3.628906 -11.113281 3.378906 -12.707031 3.265625 -12.902344 C 3.128906 -13.070312 2.597656 -13.183594 1.648438 -13.183594 C 1.230469 -13.183594 0.976562 -13.125 0.921875 -13.070312 C 0.835938 -12.984375 0.726562 -12.539062 0.613281 -11.757812 C 0.503906 -11.171875 0.445312 -10.554688 0.445312 -9.886719 C 0.445312 -8.601562 0.558594 -7.175781 0.835938 -5.667969 C 1.089844 -4.160156 1.425781 -2.90625 1.84375 -1.898438 C 2.261719 -0.78125 2.542969 -0.0820312 2.679688 0.140625 C 2.792969 0.363281 2.960938 0.476562 3.183594 0.476562 C 3.238281 0.476562 3.324219 0.476562 3.433594 0.445312 C 3.546875 0.417969 3.660156 0.390625 3.714844 0.390625 C 4.300781 0.277344 4.609375 0.222656 4.636719 0.195312 C 4.691406 0.140625 4.832031 -0.390625 5.109375 -1.453125 C 5.417969 -2.625 6.171875 -4.46875 7.371094 -6.980469 C 8.574219 -9.46875 9.410156 -10.890625 9.859375 -11.28125 C 10.054688 -11.449219 10.25 -11.476562 10.472656 -11.394531 C 10.585938 -11.339844 10.667969 -11.171875 10.695312 -10.890625 C 10.722656 -10.613281 10.753906 -9.996094 10.753906 -9.105469 C 10.753906 -7.652344 10.835938 -5.921875 11.058594 -3.855469 C 11.28125 -1.84375 11.394531 -0.699219 11.394531 -0.445312 C 11.394531 -0.308594 11.421875 -0.222656 11.507812 -0.195312 C 11.5625 -0.140625 11.730469 -0.113281 11.953125 -0.113281 C 11.980469 -0.113281 12.066406 -0.113281 12.175781 -0.140625 L 12.425781 -0.140625 C 12.957031 -0.167969 13.320312 -0.195312 13.488281 -0.195312 C 13.542969 -1.0625 13.601562 -1.703125 13.65625 -2.152344 C 13.738281 -2.90625 13.796875 -3.882812 13.796875 -5.082031 C 13.796875 -8.238281 13.601562 -10.445312 13.210938 -11.703125 C 12.957031 -12.511719 12.707031 -13.042969 12.425781 -13.320312 C 12.175781 -13.515625 11.671875 -13.65625 10.949219 -13.769531 C 10.554688 -13.796875 10.332031 -13.824219 10.277344 -13.824219 C 9.886719 -13.824219 9.410156 -13.628906 8.796875 -13.292969 Z M 8.796875 -13.292969 "/></g></g></g><g fill="#000000" fill-opacity="1"><g transform="translate(118.28506, 49.692246)"><g/></g></g></g></g></g><path stroke-linecap="round" transform="matrix(0.75, 0, 0, 0.75, 84.177539, 233.785751)" fill="none" stroke-linejoin="miter" d="M 1.997657 1.999207 L 285.372675 1.999207 " stroke="#000000" stroke-width="4" stroke-opacity="1" stroke-miterlimit="4"/></svg>